<svg xmlns="http://www.w3.org/2000/svg" width="500" height="500" version="1.2" viewBox="0 0 375 375"><defs><clipPath id="a"><path d="M203.934 131.293h13.62v13.625h-13.62Zm0 0"/></clipPath><clipPath id="b"><path d="M210.742 131.293a6.81 6.81 0 0 0-6.808 6.812 6.81 6.81 0 1 0 13.62 0 6.81 6.81 0 0 0-6.812-6.812Zm0 0"/></clipPath><clipPath id="c"><path d="M203.934 230.293h13.62v13.625h-13.62Zm0 0"/></clipPath><clipPath id="d"><path d="M210.742 230.293a6.81 6.81 0 0 0-6.808 6.812 6.81 6.81 0 1 0 13.62 0 6.81 6.81 0 0 0-6.812-6.812Zm0 0"/></clipPath><clipPath id="e"><path d="M221.633 141.492h13.625v13.625h-13.625Zm0 0"/></clipPath><clipPath id="f"><path d="M228.445 141.492a6.813 6.813 0 0 0 0 13.625 6.813 6.813 0 0 0 0-13.625Zm0 0"/></clipPath><clipPath id="g"><path d="M236.008 180.688h13.62v13.625h-13.62Zm0 0"/></clipPath><clipPath id="h"><path d="M242.816 180.688a6.81 6.81 0 0 0-6.808 6.812 6.81 6.81 0 1 0 13.62 0 6.81 6.81 0 0 0-6.812-6.813Zm0 0"/></clipPath><clipPath id="i"><path d="M221.633 219.941h13.625v13.625h-13.625Zm0 0"/></clipPath><clipPath id="j"><path d="M228.445 219.941a6.813 6.813 0 1 0 .002 13.627 6.813 6.813 0 0 0-.002-13.627Zm0 0"/></clipPath><clipPath id="k"><path d="M124.383 124.383h126v126h-126Zm0 0"/></clipPath></defs><g clip-path="url(#a)"><g clip-path="url(#b)"><path d="M203.934 131.293h13.62v13.625h-13.62Zm0 0" style="stroke:none;fill-rule:nonzero;fill:#14b9de;fill-opacity:1"/></g></g><g clip-path="url(#c)"><g clip-path="url(#d)"><path d="M203.934 230.293h13.62v13.625h-13.62Zm0 0" style="stroke:none;fill-rule:nonzero;fill:#14b9de;fill-opacity:1"/></g></g><g clip-path="url(#e)"><g clip-path="url(#f)"><path d="M221.633 141.492h13.625v13.625h-13.625Zm0 0" style="stroke:none;fill-rule:nonzero;fill:#14b9de;fill-opacity:1"/></g></g><g clip-path="url(#g)"><g clip-path="url(#h)"><path d="M236.008 180.688h13.62v13.625h-13.62Zm0 0" style="stroke:none;fill-rule:nonzero;fill:#14b9de;fill-opacity:1"/></g></g><g clip-path="url(#i)"><g clip-path="url(#j)"><path d="M221.633 219.941h13.625v13.625h-13.625Zm0 0" style="stroke:none;fill-rule:nonzero;fill:#14b9de;fill-opacity:1"/></g></g><g clip-path="url(#k)"><path d="M241.965 192.574c-.344 0-.68-.031-1.016-.097a4.994 4.994 0 0 1-.972-.297 5.065 5.065 0 0 1-1.688-1.125 5.184 5.184 0 0 1-1.52-3.672 5.164 5.164 0 0 1 1.52-3.672 5.41 5.41 0 0 1 .785-.649 5.351 5.351 0 0 1 1.875-.773 5.167 5.167 0 0 1 4.684 1.422c.242.238.457.504.648.785.188.285.348.582.48.899a5.237 5.237 0 0 1 .395 1.988 5.167 5.167 0 0 1-.398 1.984 4.84 4.84 0 0 1-.48.899 4.99 4.99 0 0 1-.645.789 5.43 5.43 0 0 1-.785.644 5.277 5.277 0 0 1-1.871.777 5.193 5.193 0 0 1-1.012.098Zm-38.711 9.582a24.33 24.33 0 0 0-4.89-3.242 42.34 42.34 0 0 0 1.468-10.059h9.16a21.565 21.565 0 0 1-1.726 7.141 21.501 21.501 0 0 1-4.012 6.16Zm-37.758-13.3h9.16a42.08 42.08 0 0 0 1.465 10.058 24.515 24.515 0 0 0-4.89 3.246 21.625 21.625 0 0 1-4.008-6.16 21.492 21.492 0 0 1-1.727-7.14Zm5.734-16.25a24.702 24.702 0 0 0 4.891 3.25 42.076 42.076 0 0 0-1.465 10.054h-9.16a21.47 21.47 0 0 1 1.727-7.14 21.571 21.571 0 0 1 4.007-6.16Zm17.485 13.304v-7.469a24.45 24.45 0 0 0 6.91-1.414 39.901 39.901 0 0 1 1.258 8.883Zm0 10.414v-7.469h8.168a39.835 39.835 0 0 1-1.258 8.88 24.636 24.636 0 0 0-6.914-1.41Zm8.715 5.426a20.622 20.622 0 0 1-3.762 6.465 21.53 21.53 0 0 0 7.43-4.016 21.554 21.554 0 0 0-3.664-2.449Zm-3.633.977c-1.434 2.914-3.227 4.84-5.078 5.523v-8.969a21.61 21.61 0 0 1 6.015 1.27 22.93 22.93 0 0 1-.937 2.176Zm-12.98 5.488a20.622 20.622 0 0 1-3.762-6.465 21.741 21.741 0 0 0-3.668 2.45 21.53 21.53 0 0 0 7.43 4.015Zm4.949-8.942v8.97c-1.848-.68-3.641-2.606-5.078-5.52a24.701 24.701 0 0 1-.934-2.18 21.694 21.694 0 0 1 6.012-1.27Zm0-10.421v7.472a24.472 24.472 0 0 0-6.91 1.41 39.867 39.867 0 0 1-1.258-8.879Zm0-10.418v7.468h-8.16c.082-3.007.5-5.968 1.253-8.879a24.592 24.592 0 0 0 6.91 1.418Zm-8.711-5.426a20.541 20.541 0 0 1 3.761-6.457 21.53 21.53 0 0 0-7.43 4.015 21.979 21.979 0 0 0 3.669 2.45Zm3.632-.977c1.434-2.914 3.231-4.844 5.079-5.523v8.969a21.58 21.58 0 0 1-6.016-1.27c.29-.762.598-1.488.938-2.176Zm12.977-5.488a21.53 21.53 0 0 1 7.43 4.016 21.585 21.585 0 0 1-3.668 2.449 20.456 20.456 0 0 0-3.758-6.457Zm-4.953-.035v8.969a21.58 21.58 0 0 0 6.016-1.27 22.493 22.493 0 0 0-.934-2.176c-1.434-2.914-3.23-4.844-5.082-5.523Zm20.281 19.402a21.587 21.587 0 0 0-1.726-7.144 21.584 21.584 0 0 0-4.012-6.16 24.702 24.702 0 0 1-4.89 3.25 42.278 42.278 0 0 1 1.468 10.054Zm24.192 40.215c0 .344-.032.68-.098 1.016-.066.332-.164.66-.297.972a4.84 4.84 0 0 1-.48.899 4.989 4.989 0 0 1-.645.789 5.649 5.649 0 0 1-.785.644 5.673 5.673 0 0 1-.899.48 5.304 5.304 0 0 1-1.988.395 5.237 5.237 0 0 1-2.887-.875 5.24 5.24 0 0 1-1.914-2.332 5.265 5.265 0 0 1-.394-1.988c0-.34.035-.676.101-1.012a5.177 5.177 0 0 1 .774-1.87 5.24 5.24 0 0 1 1.433-1.434c.286-.192.583-.352.899-.48.316-.13.64-.231.973-.298a5.233 5.233 0 0 1 3 .297 5.24 5.24 0 0 1 2.332 1.914 5.223 5.223 0 0 1 .777 1.871c.066.336.098.672.098 1.012Zm-18.051 10.527a5.164 5.164 0 0 1-1.52 3.672 5.41 5.41 0 0 1-.785.649 5.673 5.673 0 0 1-.898.48 5.164 5.164 0 0 1-1.988.395 5.077 5.077 0 0 1-1.988-.395 4.967 4.967 0 0 1-.9-.48 4.989 4.989 0 0 1-.788-.645 5.383 5.383 0 0 1-.645-.785 5.1 5.1 0 0 1-.48-.898 5.164 5.164 0 0 1-.395-1.988c0-.345.031-.68.098-1.016.066-.332.164-.66.297-.973a5.065 5.065 0 0 1 1.125-1.688 5.142 5.142 0 0 1 1.683-1.125c.317-.132.64-.23.977-.296a5.167 5.167 0 0 1 2.027 0c.332.066.656.164.973.296a5.142 5.142 0 0 1 1.684 1.125 5.24 5.24 0 0 1 1.128 1.684 5.164 5.164 0 0 1 .395 1.988Zm-10.387-98.539c0-.343.031-.68.098-1.015.066-.332.164-.66.297-.973a4.84 4.84 0 0 1 .48-.898 5.142 5.142 0 0 1 2.328-1.914c.317-.133.64-.231.977-.297a5.519 5.519 0 0 1 1.012-.102 5.207 5.207 0 0 1 5.097 4.184c.067.336.098.672.098 1.015a5.193 5.193 0 0 1-.395 1.989c-.129.312-.289.613-.48.894a4.989 4.989 0 0 1-.645.79 4.989 4.989 0 0 1-.789.644 4.84 4.84 0 0 1-.898.48 5.077 5.077 0 0 1-1.988.395c-.34 0-.68-.032-1.012-.098a5.494 5.494 0 0 1-.973-.297 5.351 5.351 0 0 1-.898-.48 5.022 5.022 0 0 1-.785-.649 5.022 5.022 0 0 1-.649-.785 5.507 5.507 0 0 1-.48-.898 5.494 5.494 0 0 1-.297-.973 5.193 5.193 0 0 1-.098-1.012Zm18.05 10.524a5.304 5.304 0 0 1 .395-1.988 5.47 5.47 0 0 1 .48-.895c.192-.285.407-.547.645-.79.243-.241.504-.456.79-.644.285-.191.582-.351.898-.48a5.207 5.207 0 0 1 1.988-.398 5.198 5.198 0 0 1 1.985.398 5.065 5.065 0 0 1 1.687 1.125c.242.238.457.504.645.785.191.285.351.582.48.898a5.077 5.077 0 0 1 .395 1.989 5.164 5.164 0 0 1-1.52 3.672 5.142 5.142 0 0 1-1.684 1.125 5.167 5.167 0 0 1-1.988.398 5.485 5.485 0 0 1-1.012-.102 5.188 5.188 0 0 1-1.871-.777 5.215 5.215 0 0 1-.789-.644 5.462 5.462 0 0 1-.644-.79 5.188 5.188 0 0 1-.88-2.882Zm19.169 30.605a8.255 8.255 0 0 0-2.77.488 8.11 8.11 0 0 0-3.441 2.395c-.305.36-.574.742-.816 1.148-.239.41-.438.832-.602 1.278a7.797 7.797 0 0 0-.379 1.36h-22.016a24.261 24.261 0 0 0-1.675-7.579h16.136a3.09 3.09 0 0 0 1.168-.238 3.05 3.05 0 0 0 1.66-1.656c.157-.375.235-.766.235-1.172V156.64a7.53 7.53 0 0 0 .972-.243 7.996 7.996 0 0 0 1.825-.832 7.956 7.956 0 0 0 1.562-1.254 8.414 8.414 0 0 0 1.21-1.594 7.969 7.969 0 0 0 .781-1.844c.095-.32.165-.647.22-.98.05-.328.082-.664.094-.996.012-.335 0-.671-.031-1.003a7.167 7.167 0 0 0-.153-.993 7.535 7.535 0 0 0-.273-.964 7.379 7.379 0 0 0-.39-.926 7.67 7.67 0 0 0-.5-.867 8.083 8.083 0 0 0-2.934-2.68 8.048 8.048 0 0 0-2.856-.91 8.537 8.537 0 0 0-1-.063 8.398 8.398 0 0 0-1.988.246 7.993 7.993 0 0 0-1.867.727 8.09 8.09 0 0 0-2.332 1.879 8.119 8.119 0 0 0-1.106 1.668c-.148.3-.277.61-.39.925-.11.317-.2.637-.274.965-.07.328-.12.66-.152.993-.028.332-.04.667-.028 1.003a8.266 8.266 0 0 0 .309 1.977 8.378 8.378 0 0 0 1.34 2.68c.203.265.422.52.656.757a8.097 8.097 0 0 0 4.36 2.329v18.625c-.004.078-.043.117-.118.117H208.88a24.747 24.747 0 0 0-6.52-7.578h5.993a3.054 3.054 0 0 0 2.16-.898c.289-.29.508-.618.664-.993.156-.375.234-.766.234-1.172v-18.625c.328-.062.653-.14.973-.242.32-.102.633-.223.937-.36a8.32 8.32 0 0 0 1.703-1.05 8.144 8.144 0 0 0 1.399-1.434 8.375 8.375 0 0 0 1.004-1.734 8.277 8.277 0 0 0 .555-1.926c.05-.328.082-.664.093-.996.008-.336 0-.672-.031-1.004a8.229 8.229 0 0 0-.816-2.883 7.93 7.93 0 0 0-.5-.867 8.021 8.021 0 0 0-1.301-1.523 7.975 7.975 0 0 0-.781-.63 8.012 8.012 0 0 0-1.766-.948 8.021 8.021 0 0 0-1.941-.489 7.811 7.811 0 0 0-1-.062c-.336 0-.672.02-1.004.062a8.254 8.254 0 0 0-2.852.906c-.297.16-.582.336-.855.532a7.975 7.975 0 0 0-1.477 1.347 8.021 8.021 0 0 0-.605.805 7.93 7.93 0 0 0-.5.867 8.229 8.229 0 0 0-.816 2.883c-.032.332-.04.668-.028 1.004.008.332.039.668.094.996a7.988 7.988 0 0 0 .55 1.926 8.375 8.375 0 0 0 1.004 1.734c.203.266.422.52.656.758a8.097 8.097 0 0 0 4.36 2.328v18.625c-.004.074-.043.113-.117.117h-10.86a23.893 23.893 0 0 0-2.886-1.101 24.71 24.71 0 0 0-4.528-.957 25.275 25.275 0 0 0-3.082-.164c-.515.008-1.031.027-1.543.066-.515.035-1.027.09-1.539.156a25.833 25.833 0 0 0-3.027.606 24.767 24.767 0 0 0-2.93.98c-.476.192-.95.399-1.41.621-.465.223-.922.461-1.375.711a25.293 25.293 0 0 0-2.594 1.672c-.418.305-.82.625-1.215.953-.398.332-.78.676-1.156 1.028-.371.355-.734.722-1.086 1.097-.351.38-.687.766-1.015 1.164-.329.399-.641.809-.942 1.227-.3.418-.59.844-.863 1.281-.274.434-.535.88-.781 1.332a23.99 23.99 0 0 0-1.309 2.797c-.187.48-.36.965-.52 1.453-.156.492-.3.985-.43 1.485a25.344 25.344 0 0 0-.718 4.574 25.34 25.34 0 0 0 0 3.086 24.724 24.724 0 0 0 .387 3.063c.094.507.207 1.011.332 1.511.129.496.273.992.43 1.48.16.493.332.977.519 1.458.188.48.395.953.61 1.417a25.337 25.337 0 0 0 1.48 2.711c.273.438.562.864.863 1.282.3.418.613.828.942 1.222a24.062 24.062 0 0 0 2.101 2.262c.375.356.758.7 1.156 1.027a24.228 24.228 0 0 0 5.184 3.336 24.85 24.85 0 0 0 2.86 1.16 25.393 25.393 0 0 0 2.984.793c.508.102 1.015.188 1.523.254a25.335 25.335 0 0 0 3.082.227 25.42 25.42 0 0 0 4.61-.387c.507-.094 1.011-.199 1.511-.32a23.905 23.905 0 0 0 2.95-.922c.48-.184.957-.379 1.425-.594h10.864c.074.004.113.043.113.117v18.625c-.328.063-.653.141-.973.243-.32.101-.633.222-.937.359-.305.14-.602.297-.887.473a8.097 8.097 0 0 0-1.563 1.254 7.654 7.654 0 0 0-.656.761 8.32 8.32 0 0 0-1.004 1.73 8.047 8.047 0 0 0-.55 1.927 7.158 7.158 0 0 0-.094 1c-.012.335-.004.671.027 1.003a8.229 8.229 0 0 0 1.316 3.754c.188.278.387.547.606.801.219.254.45.496.7.719.245.226.507.437.78.633a7.965 7.965 0 0 0 1.762.945c.313.125.633.227.957.305.328.082.656.144.988.187.333.04.668.063 1 .063.336 0 .672-.024 1.004-.063a8.41 8.41 0 0 0 .985-.187c.328-.078.644-.18.957-.305a8.021 8.021 0 0 0 2.547-1.578c.246-.223.48-.465.699-.719a8.403 8.403 0 0 0 1.105-1.672c.149-.3.278-.61.387-.926.113-.316.203-.636.274-.964a7.71 7.71 0 0 0 .183-1.996 8.573 8.573 0 0 0-.094-1 8.375 8.375 0 0 0-.214-.977 8.819 8.819 0 0 0-.336-.95 8.32 8.32 0 0 0-.45-.894 7.593 7.593 0 0 0-.558-.836 7.617 7.617 0 0 0-.653-.761 8.144 8.144 0 0 0-1.566-1.254 8.32 8.32 0 0 0-.883-.473 8.291 8.291 0 0 0-1.914-.602v-18.625c0-.406-.078-.796-.23-1.171a3.054 3.054 0 0 0-.664-.993 2.95 2.95 0 0 0-.996-.664 3.013 3.013 0 0 0-1.168-.234h-5.993a24.716 24.716 0 0 0 6.52-7.582h17.523c.075.004.114.043.118.117v18.629c-.333.059-.657.14-.977.242a7.537 7.537 0 0 0-.934.36 7.956 7.956 0 0 0-1.707 1.05 8.055 8.055 0 0 0-1.394 1.434 7.562 7.562 0 0 0-.555.836c-.168.289-.32.586-.45.894a8.244 8.244 0 0 0-.335.946 7.703 7.703 0 0 0-.215.98 7.158 7.158 0 0 0-.094.996c-.011.336-.004.672.028 1.004a8.229 8.229 0 0 0 .426 1.957 8.37 8.37 0 0 0 .89 1.793c.184.278.387.547.606.801a7.975 7.975 0 0 0 1.477 1.348c.273.195.558.37.85.53.298.157.602.298.915.419.312.12.629.222.953.305.324.082.652.144.988.183.332.043.664.063 1 .063.336 0 .668-.02 1-.063a8.02 8.02 0 0 0 1.941-.488 8.012 8.012 0 0 0 2.543-1.578c.25-.223.481-.465.7-.719.219-.254.418-.523.605-.8a8.37 8.37 0 0 0 .89-1.794c.11-.316.2-.637.274-.965.07-.328.121-.66.153-.992.027-.332.039-.668.027-1.004a8.587 8.587 0 0 0-.094-.996 8.439 8.439 0 0 0-.215-.98 8.244 8.244 0 0 0-.785-1.84 8.122 8.122 0 0 0-2.773-2.848 7.665 7.665 0 0 0-.883-.472 7.36 7.36 0 0 0-.938-.36 7.692 7.692 0 0 0-.972-.242v-18.629c0-.406-.078-.793-.235-1.168a3.113 3.113 0 0 0-.664-.996 3.086 3.086 0 0 0-2.164-.898h-16.129c.961-2.438 1.52-4.961 1.676-7.579h22.016c.09.504.23.997.418 1.477.183.48.414.938.687 1.371a8.119 8.119 0 0 0 3.395 3.027c.465.22.945.395 1.441.528.496.129 1 .21 1.516.246a8.154 8.154 0 0 0 5.715-1.832 8.246 8.246 0 0 0 1.953-2.348 8.14 8.14 0 0 0 1.004-4.434 7.904 7.904 0 0 0-.239-1.515 8.072 8.072 0 0 0-1.297-2.77 8.318 8.318 0 0 0-1.011-1.152 8.311 8.311 0 0 0-1.211-.941 8.18 8.18 0 0 0-4.367-1.27Zm-114.637-1.012v18.301c0 .25.078.465.246.653a.925.925 0 0 0 .617.324l10.77 1.324c.3.035.562.152.789.352.227.199.379.441.453.73a48.297 48.297 0 0 0 4.918 11.863c.152.262.215.543.195.844-.02.297-.125.566-.308.805l-6.68 8.55a.94.94 0 0 0-.21.669c.015.246.112.46.288.632l12.938 12.942c.172.18.383.273.633.289a.931.931 0 0 0 .664-.211l8.554-6.68c.235-.183.504-.289.805-.308.3-.02.582.043.84.195a48.36 48.36 0 0 0 11.863 4.918c.293.074.535.226.734.453.196.227.313.492.352.79l1.32 10.769c.032.246.141.453.328.617a.949.949 0 0 0 .653.246h7.683v-28.82a31.2 31.2 0 0 1-5.859-.84c-.96-.235-1.91-.512-2.844-.836a30.31 30.31 0 0 1-2.75-1.098 31.695 31.695 0 0 1-2.636-1.36 30.956 30.956 0 0 1-4.82-3.434 31.12 31.12 0 0 1-5.805-6.694 30.989 30.989 0 0 1-2.711-5.262 30.795 30.795 0 0 1-.97-2.8 30.933 30.933 0 0 1-1.262-8.77 31.233 31.233 0 0 1 .564-5.895 31.136 31.136 0 0 1 2.898-8.371 30.988 30.988 0 0 1 5.14-7.219 30.905 30.905 0 0 1 4.473-3.875 30.344 30.344 0 0 1 2.493-1.601 30.55 30.55 0 0 1 2.636-1.36c.899-.41 1.817-.777 2.75-1.101.934-.32 1.883-.598 2.844-.832a31.201 31.201 0 0 1 5.86-.84v-28.82h-7.684a.944.944 0 0 0-.656.242.978.978 0 0 0-.325.621l-1.32 10.77c-.039.296-.156.562-.351.789-.2.226-.442.375-.735.453a48.21 48.21 0 0 0-11.863 4.918c-.258.148-.54.215-.84.195-.3-.02-.566-.125-.805-.309l-8.554-6.683a.952.952 0 0 0-.664-.207.947.947 0 0 0-.633.289l-12.938 12.933a.956.956 0 0 0-.289.637.937.937 0 0 0 .211.664l6.68 8.555c.183.234.289.504.308.805.02.3-.043.582-.195.84a48.36 48.36 0 0 0-4.918 11.863 1.41 1.41 0 0 1-.453.73c-.227.2-.488.317-.79.356l-10.769 1.324a.946.946 0 0 0-.617.32.966.966 0 0 0-.246.656Zm.504 22.204 9.79 1.203a51.246 51.246 0 0 0 4.456 10.754l-6.074 7.773a3.922 3.922 0 0 0-.652 1.254 3.89 3.89 0 0 0 .168 2.777c.199.438.464.825.804 1.164l12.942 12.942c.336.34.726.61 1.164.804a3.89 3.89 0 0 0 2.777.168c.457-.14.875-.359 1.254-.652l7.777-6.074c3.414 1.894 7 3.379 10.758 4.453l1.2 9.793a3.967 3.967 0 0 0 1.3 2.46 3.886 3.886 0 0 0 2.602.99h9.144a1.458 1.458 0 0 0 1.36-.907c.078-.184.113-.371.113-.566v-31.73c0-.196-.035-.384-.113-.563a1.43 1.43 0 0 0-.317-.48 1.458 1.458 0 0 0-1.043-.43 28.358 28.358 0 0 1-5.496-.544 27.94 27.94 0 0 1-5.29-1.605 28.577 28.577 0 0 1-2.499-1.18 29.05 29.05 0 0 1-2.371-1.422 27.893 27.893 0 0 1-4.27-3.508 27.893 27.893 0 0 1-3.507-4.269 29.05 29.05 0 0 1-1.422-2.371 28.577 28.577 0 0 1-2.114-5.106 28.662 28.662 0 0 1-.671-2.683 27.959 27.959 0 0 1-.543-5.496 28.358 28.358 0 0 1 .543-5.5c.18-.903.406-1.797.671-2.68.27-.887.579-1.754.934-2.605a28.053 28.053 0 0 1 2.602-4.871 28.68 28.68 0 0 1 1.648-2.223 27.171 27.171 0 0 1 1.86-2.05 28.747 28.747 0 0 1 2.046-1.856 27.705 27.705 0 0 1 2.223-1.649 27.983 27.983 0 0 1 4.871-2.605 27.915 27.915 0 0 1 2.606-.93c.882-.27 1.777-.492 2.683-.672a27.958 27.958 0 0 1 5.496-.543c.196 0 .383-.035.563-.113.183-.074.34-.18.48-.316a1.511 1.511 0 0 0 .43-1.043v-31.73a1.41 1.41 0 0 0-.113-.567 1.453 1.453 0 0 0-.797-.797 1.458 1.458 0 0 0-.563-.11h-9.152c-.477 0-.942.086-1.39.254a3.95 3.95 0 0 0-1.212.73 3.923 3.923 0 0 0-1.297 2.465l-1.195 9.79a51.191 51.191 0 0 0-10.758 4.457l-7.777-6.074a3.922 3.922 0 0 0-1.254-.653 3.89 3.89 0 0 0-2.777.168 3.87 3.87 0 0 0-1.164.8l-12.942 12.942c-.34.34-.605.73-.804 1.164a3.9 3.9 0 0 0-.168 2.781c.14.458.359.876.652 1.255l6.074 7.777a51.246 51.246 0 0 0-4.457 10.754l-9.789 1.207c-.477.058-.926.2-1.348.422a3.901 3.901 0 0 0-1.844 2.078c-.171.45-.257.914-.257 1.39v18.301a3.93 3.93 0 0 0 3.449 3.903Zm0 0" style="stroke:none;fill-rule:evenodd;fill:#fff;fill-opacity:1"/></g></svg>