<svg xmlns="http://www.w3.org/2000/svg" xmlns:xlink="http://www.w3.org/1999/xlink" width="500" zoomAndPan="magnify" viewBox="0 0 375 374.999991" height="500" preserveAspectRatio="xMidYMid meet" version="1.2"><defs><clipPath id="da2997f761"><path d="M 203.933594 102.359375 L 217.554688 102.359375 L 217.554688 115.984375 L 203.933594 115.984375 Z M 203.933594 102.359375 "/></clipPath><clipPath id="0a6e41b570"><path d="M 210.742188 102.359375 C 206.980469 102.359375 203.933594 105.410156 203.933594 109.171875 C 203.933594 112.933594 206.980469 115.984375 210.742188 115.984375 C 214.507812 115.984375 217.554688 112.933594 217.554688 109.171875 C 217.554688 105.410156 214.507812 102.359375 210.742188 102.359375 Z M 210.742188 102.359375 "/></clipPath><clipPath id="7e383c7b91"><path d="M 203.933594 201.359375 L 217.554688 201.359375 L 217.554688 214.984375 L 203.933594 214.984375 Z M 203.933594 201.359375 "/></clipPath><clipPath id="1a187b05ac"><path d="M 210.742188 201.359375 C 206.980469 201.359375 203.933594 204.410156 203.933594 208.171875 C 203.933594 211.933594 206.980469 214.984375 210.742188 214.984375 C 214.507812 214.984375 217.554688 211.933594 217.554688 208.171875 C 217.554688 204.410156 214.507812 201.359375 210.742188 201.359375 Z M 210.742188 201.359375 "/></clipPath><clipPath id="910935ab32"><path d="M 221.632812 112.5625 L 235.257812 112.5625 L 235.257812 126.183594 L 221.632812 126.183594 Z M 221.632812 112.5625 "/></clipPath><clipPath id="2e2dae2347"><path d="M 228.445312 112.5625 C 224.683594 112.5625 221.632812 115.609375 221.632812 119.375 C 221.632812 123.136719 224.683594 126.183594 228.445312 126.183594 C 232.207031 126.183594 235.257812 123.136719 235.257812 119.375 C 235.257812 115.609375 232.207031 112.5625 228.445312 112.5625 Z M 228.445312 112.5625 "/></clipPath><clipPath id="9391d52bfb"><path d="M 236.007812 151.753906 L 249.628906 151.753906 L 249.628906 165.378906 L 236.007812 165.378906 Z M 236.007812 151.753906 "/></clipPath><clipPath id="7228ec333f"><path d="M 242.816406 151.753906 C 239.054688 151.753906 236.007812 154.804688 236.007812 158.566406 C 236.007812 162.328125 239.054688 165.378906 242.816406 165.378906 C 246.582031 165.378906 249.628906 162.328125 249.628906 158.566406 C 249.628906 154.804688 246.582031 151.753906 242.816406 151.753906 Z M 242.816406 151.753906 "/></clipPath><clipPath id="47acc9d36b"><path d="M 221.632812 191.011719 L 235.257812 191.011719 L 235.257812 204.636719 L 221.632812 204.636719 Z M 221.632812 191.011719 "/></clipPath><clipPath id="d181ec4868"><path d="M 228.445312 191.011719 C 224.683594 191.011719 221.632812 194.0625 221.632812 197.824219 C 221.632812 201.585938 224.683594 204.636719 228.445312 204.636719 C 232.207031 204.636719 235.257812 201.585938 235.257812 197.824219 C 235.257812 194.0625 232.207031 191.011719 228.445312 191.011719 Z M 228.445312 191.011719 "/></clipPath><clipPath id="cec7774b09"><path d="M 124.382812 95.449219 L 250.382812 95.449219 L 250.382812 221.449219 L 124.382812 221.449219 Z M 124.382812 95.449219 "/></clipPath></defs><g id="cd04f464a6"><g clip-rule="nonzero" clip-path="url(#da2997f761)"><g clip-rule="nonzero" clip-path="url(#0a6e41b570)"><path style=" stroke:none;fill-rule:nonzero;fill:#14b9de;fill-opacity:1;" d="M 203.933594 102.359375 L 217.554688 102.359375 L 217.554688 115.984375 L 203.933594 115.984375 Z M 203.933594 102.359375 "/></g></g><g clip-rule="nonzero" clip-path="url(#7e383c7b91)"><g clip-rule="nonzero" clip-path="url(#1a187b05ac)"><path style=" stroke:none;fill-rule:nonzero;fill:#14b9de;fill-opacity:1;" d="M 203.933594 201.359375 L 217.554688 201.359375 L 217.554688 214.984375 L 203.933594 214.984375 Z M 203.933594 201.359375 "/></g></g><g clip-rule="nonzero" clip-path="url(#910935ab32)"><g clip-rule="nonzero" clip-path="url(#2e2dae2347)"><path style=" stroke:none;fill-rule:nonzero;fill:#14b9de;fill-opacity:1;" d="M 221.632812 112.5625 L 235.257812 112.5625 L 235.257812 126.183594 L 221.632812 126.183594 Z M 221.632812 112.5625 "/></g></g><g clip-rule="nonzero" clip-path="url(#9391d52bfb)"><g clip-rule="nonzero" clip-path="url(#7228ec333f)"><path style=" stroke:none;fill-rule:nonzero;fill:#14b9de;fill-opacity:1;" d="M 236.007812 151.753906 L 249.628906 151.753906 L 249.628906 165.378906 L 236.007812 165.378906 Z M 236.007812 151.753906 "/></g></g><g clip-rule="nonzero" clip-path="url(#47acc9d36b)"><g clip-rule="nonzero" clip-path="url(#d181ec4868)"><path style=" stroke:none;fill-rule:nonzero;fill:#14b9de;fill-opacity:1;" d="M 221.632812 191.011719 L 235.257812 191.011719 L 235.257812 204.636719 L 221.632812 204.636719 Z M 221.632812 191.011719 "/></g></g><g clip-rule="nonzero" clip-path="url(#cec7774b09)"><path style=" stroke:none;fill-rule:evenodd;fill:#000000;fill-opacity:1;" d="M 241.964844 163.644531 C 241.621094 163.644531 241.285156 163.609375 240.949219 163.542969 C 240.617188 163.476562 240.289062 163.378906 239.976562 163.25 C 239.660156 163.117188 239.359375 162.957031 239.078125 162.769531 C 238.792969 162.578125 238.53125 162.363281 238.289062 162.125 C 238.050781 161.882812 237.832031 161.621094 237.644531 161.335938 C 237.453125 161.054688 237.292969 160.753906 237.164062 160.4375 C 237.035156 160.125 236.933594 159.800781 236.867188 159.464844 C 236.800781 159.128906 236.769531 158.792969 236.769531 158.449219 C 236.769531 158.109375 236.800781 157.773438 236.867188 157.4375 C 236.933594 157.101562 237.03125 156.777344 237.164062 156.464844 C 237.292969 156.148438 237.453125 155.847656 237.644531 155.566406 C 237.832031 155.28125 238.046875 155.019531 238.289062 154.777344 C 238.53125 154.535156 238.792969 154.320312 239.074219 154.132812 C 239.359375 153.941406 239.660156 153.78125 239.972656 153.652344 C 240.289062 153.523438 240.613281 153.421875 240.949219 153.355469 C 241.28125 153.289062 241.621094 153.257812 241.960938 153.257812 C 242.300781 153.257812 242.640625 153.289062 242.976562 153.355469 C 243.308594 153.421875 243.632812 153.519531 243.949219 153.652344 C 244.265625 153.78125 244.5625 153.941406 244.847656 154.132812 C 245.128906 154.320312 245.394531 154.535156 245.632812 154.777344 C 245.875 155.019531 246.089844 155.28125 246.28125 155.566406 C 246.46875 155.847656 246.628906 156.148438 246.761719 156.460938 C 246.890625 156.777344 246.988281 157.101562 247.054688 157.4375 C 247.121094 157.769531 247.15625 158.109375 247.15625 158.449219 C 247.15625 158.792969 247.121094 159.128906 247.054688 159.464844 C 246.988281 159.796875 246.890625 160.121094 246.757812 160.4375 C 246.628906 160.75 246.46875 161.050781 246.277344 161.335938 C 246.089844 161.617188 245.875 161.878906 245.632812 162.121094 C 245.394531 162.363281 245.128906 162.578125 244.847656 162.765625 C 244.5625 162.957031 244.265625 163.117188 243.949219 163.246094 C 243.636719 163.378906 243.308594 163.476562 242.976562 163.542969 C 242.640625 163.609375 242.304688 163.644531 241.964844 163.644531 Z M 203.253906 173.226562 C 201.753906 171.949219 200.125 170.867188 198.363281 169.980469 C 199.257812 166.6875 199.746094 163.335938 199.832031 159.921875 L 208.992188 159.921875 C 208.824219 162.402344 208.25 164.785156 207.265625 167.066406 C 206.28125 169.347656 204.945312 171.402344 203.253906 173.222656 Z M 165.496094 159.925781 L 174.65625 159.925781 C 174.738281 163.335938 175.226562 166.6875 176.121094 169.980469 C 174.359375 170.867188 172.730469 171.949219 171.230469 173.226562 C 169.542969 171.402344 168.207031 169.351562 167.222656 167.070312 C 166.238281 164.785156 165.660156 162.40625 165.496094 159.925781 Z M 171.230469 143.675781 C 172.730469 144.953125 174.359375 146.035156 176.121094 146.921875 C 175.226562 150.214844 174.738281 153.566406 174.65625 156.980469 L 165.496094 156.980469 C 165.660156 154.5 166.238281 152.117188 167.222656 149.835938 C 168.207031 147.554688 169.542969 145.5 171.230469 143.675781 Z M 188.714844 156.976562 L 188.714844 149.511719 C 191.085938 149.371094 193.390625 148.898438 195.625 148.097656 C 196.378906 151.007812 196.796875 153.96875 196.882812 156.976562 Z M 188.714844 167.390625 L 188.714844 159.925781 L 196.882812 159.925781 C 196.796875 162.929688 196.378906 165.890625 195.625 168.800781 C 193.386719 168 191.082031 167.53125 188.710938 167.390625 Z M 197.429688 172.816406 C 196.570312 175.203125 195.316406 177.355469 193.667969 179.28125 C 196.410156 178.433594 198.886719 177.097656 201.097656 175.265625 C 199.960938 174.328125 198.738281 173.511719 197.433594 172.816406 Z M 193.796875 173.796875 C 192.363281 176.710938 190.570312 178.636719 188.71875 179.316406 L 188.71875 170.347656 C 190.78125 170.484375 192.789062 170.90625 194.734375 171.617188 C 194.453125 172.378906 194.136719 173.109375 193.796875 173.796875 Z M 180.816406 179.28125 C 179.167969 177.355469 177.914062 175.203125 177.054688 172.816406 C 175.75 173.511719 174.527344 174.328125 173.386719 175.265625 C 175.597656 177.09375 178.074219 178.433594 180.816406 179.28125 Z M 185.765625 170.34375 L 185.765625 179.3125 C 183.917969 178.632812 182.125 176.703125 180.6875 173.789062 C 180.351562 173.101562 180.039062 172.371094 179.753906 171.613281 C 181.695312 170.902344 183.703125 170.480469 185.765625 170.34375 Z M 185.765625 159.917969 L 185.765625 167.390625 C 183.394531 167.527344 181.09375 168 178.855469 168.800781 C 178.101562 165.890625 177.683594 162.929688 177.597656 159.921875 Z M 185.765625 149.503906 L 185.765625 156.972656 L 177.605469 156.972656 C 177.6875 153.964844 178.105469 151.003906 178.859375 148.089844 C 181.09375 148.894531 183.398438 149.371094 185.769531 149.511719 Z M 177.054688 144.078125 C 177.914062 141.695312 179.167969 139.542969 180.816406 137.617188 C 178.074219 138.464844 175.597656 139.804688 173.386719 141.632812 C 174.527344 142.574219 175.75 143.390625 177.054688 144.082031 Z M 180.6875 143.101562 C 182.121094 140.183594 183.917969 138.257812 185.765625 137.578125 L 185.765625 146.542969 C 183.699219 146.40625 181.695312 145.984375 179.75 145.277344 C 180.039062 144.515625 180.347656 143.785156 180.6875 143.101562 Z M 193.664062 137.609375 C 196.40625 138.457031 198.882812 139.796875 201.09375 141.625 C 199.953125 142.566406 198.734375 143.382812 197.425781 144.074219 C 196.570312 141.695312 195.316406 139.542969 193.667969 137.617188 Z M 188.710938 137.578125 L 188.710938 146.542969 C 190.777344 146.410156 192.78125 145.984375 194.726562 145.277344 C 194.449219 144.515625 194.128906 143.785156 193.792969 143.101562 C 192.359375 140.183594 190.5625 138.257812 188.710938 137.578125 Z M 208.992188 156.976562 C 208.824219 154.496094 208.25 152.113281 207.265625 149.832031 C 206.28125 147.550781 204.941406 145.496094 203.253906 143.675781 C 201.753906 144.953125 200.125 146.035156 198.363281 146.921875 C 199.257812 150.214844 199.746094 153.566406 199.832031 156.980469 Z M 233.183594 197.195312 C 233.183594 197.535156 233.152344 197.875 233.085938 198.207031 C 233.019531 198.542969 232.921875 198.867188 232.789062 199.183594 C 232.660156 199.496094 232.5 199.796875 232.308594 200.078125 C 232.121094 200.363281 231.90625 200.625 231.664062 200.867188 C 231.421875 201.109375 231.160156 201.324219 230.878906 201.511719 C 230.59375 201.703125 230.292969 201.863281 229.980469 201.992188 C 229.664062 202.125 229.339844 202.222656 229.003906 202.289062 C 228.671875 202.355469 228.332031 202.386719 227.992188 202.386719 C 227.652344 202.386719 227.3125 202.355469 226.976562 202.289062 C 226.644531 202.222656 226.320312 202.125 226.003906 201.992188 C 225.6875 201.863281 225.390625 201.703125 225.105469 201.511719 C 224.824219 201.324219 224.558594 201.109375 224.320312 200.867188 C 224.078125 200.625 223.863281 200.363281 223.671875 200.078125 C 223.484375 199.796875 223.324219 199.496094 223.191406 199.183594 C 223.0625 198.867188 222.964844 198.542969 222.898438 198.207031 C 222.832031 197.875 222.796875 197.535156 222.796875 197.195312 C 222.796875 196.851562 222.832031 196.515625 222.898438 196.179688 C 222.964844 195.847656 223.0625 195.523438 223.191406 195.207031 C 223.324219 194.890625 223.484375 194.59375 223.671875 194.308594 C 223.863281 194.027344 224.078125 193.761719 224.320312 193.523438 C 224.558594 193.28125 224.824219 193.066406 225.105469 192.875 C 225.390625 192.6875 225.6875 192.527344 226.003906 192.394531 C 226.320312 192.265625 226.644531 192.167969 226.976562 192.101562 C 227.3125 192.035156 227.652344 192 227.992188 192 C 228.332031 192 228.671875 192.035156 229.003906 192.101562 C 229.339844 192.167969 229.664062 192.265625 229.976562 192.398438 C 230.292969 192.527344 230.59375 192.6875 230.875 192.878906 C 231.160156 193.066406 231.421875 193.28125 231.664062 193.523438 C 231.902344 193.765625 232.117188 194.027344 232.308594 194.308594 C 232.5 194.59375 232.65625 194.894531 232.789062 195.207031 C 232.917969 195.523438 233.019531 195.847656 233.085938 196.179688 C 233.152344 196.515625 233.183594 196.855469 233.183594 197.195312 Z M 215.132812 207.71875 C 215.132812 208.0625 215.101562 208.398438 215.035156 208.734375 C 214.96875 209.066406 214.871094 209.394531 214.738281 209.707031 C 214.609375 210.023438 214.449219 210.324219 214.257812 210.605469 C 214.070312 210.890625 213.855469 211.152344 213.613281 211.394531 C 213.371094 211.636719 213.109375 211.851562 212.828125 212.039062 C 212.542969 212.230469 212.242188 212.390625 211.929688 212.519531 C 211.613281 212.652344 211.289062 212.75 210.953125 212.816406 C 210.621094 212.882812 210.28125 212.917969 209.941406 212.917969 C 209.601562 212.917969 209.261719 212.882812 208.925781 212.816406 C 208.59375 212.75 208.269531 212.652344 207.953125 212.523438 C 207.636719 212.390625 207.339844 212.230469 207.054688 212.042969 C 206.769531 211.851562 206.507812 211.636719 206.265625 211.394531 C 206.027344 211.15625 205.808594 210.890625 205.621094 210.609375 C 205.429688 210.324219 205.269531 210.027344 205.140625 209.710938 C 205.007812 209.394531 204.910156 209.070312 204.84375 208.738281 C 204.777344 208.402344 204.746094 208.0625 204.746094 207.722656 C 204.746094 207.382812 204.777344 207.042969 204.84375 206.710938 C 204.910156 206.375 205.007812 206.050781 205.140625 205.734375 C 205.269531 205.417969 205.429688 205.121094 205.617188 204.835938 C 205.808594 204.554688 206.023438 204.289062 206.265625 204.050781 C 206.507812 203.808594 206.769531 203.59375 207.050781 203.402344 C 207.335938 203.214844 207.636719 203.054688 207.949219 202.921875 C 208.265625 202.792969 208.589844 202.691406 208.925781 202.625 C 209.257812 202.558594 209.597656 202.527344 209.9375 202.527344 C 210.277344 202.527344 210.617188 202.558594 210.953125 202.625 C 211.285156 202.695312 211.609375 202.792969 211.925781 202.921875 C 212.242188 203.054688 212.539062 203.214844 212.824219 203.402344 C 213.105469 203.59375 213.367188 203.808594 213.609375 204.046875 C 213.851562 204.289062 214.066406 204.550781 214.257812 204.835938 C 214.445312 205.117188 214.605469 205.417969 214.738281 205.734375 C 214.867188 206.046875 214.964844 206.371094 215.035156 206.707031 C 215.101562 207.042969 215.132812 207.378906 215.132812 207.71875 Z M 204.746094 109.179688 C 204.746094 108.839844 204.777344 108.5 204.84375 108.167969 C 204.910156 107.832031 205.007812 107.507812 205.140625 107.191406 C 205.269531 106.875 205.429688 106.578125 205.621094 106.292969 C 205.808594 106.011719 206.023438 105.746094 206.265625 105.507812 C 206.507812 105.265625 206.769531 105.050781 207.050781 104.859375 C 207.335938 104.671875 207.636719 104.511719 207.949219 104.378906 C 208.265625 104.25 208.589844 104.148438 208.925781 104.082031 C 209.261719 104.015625 209.597656 103.984375 209.9375 103.984375 C 210.28125 103.984375 210.617188 104.015625 210.953125 104.082031 C 211.289062 104.148438 211.613281 104.25 211.925781 104.378906 C 212.242188 104.507812 212.542969 104.667969 212.824219 104.859375 C 213.109375 105.046875 213.371094 105.265625 213.613281 105.503906 C 213.855469 105.746094 214.070312 106.007812 214.257812 106.292969 C 214.449219 106.578125 214.609375 106.875 214.738281 107.191406 C 214.871094 107.507812 214.96875 107.832031 215.035156 108.164062 C 215.101562 108.5 215.132812 108.839844 215.132812 109.179688 C 215.132812 109.519531 215.101562 109.859375 215.035156 110.191406 C 214.96875 110.527344 214.871094 110.851562 214.738281 111.167969 C 214.609375 111.484375 214.449219 111.78125 214.257812 112.066406 C 214.070312 112.347656 213.855469 112.613281 213.613281 112.851562 C 213.371094 113.09375 213.109375 113.308594 212.824219 113.5 C 212.542969 113.6875 212.242188 113.847656 211.925781 113.980469 C 211.609375 114.109375 211.285156 114.207031 210.953125 114.273438 C 210.617188 114.339844 210.277344 114.375 209.9375 114.375 C 209.597656 114.375 209.257812 114.339844 208.925781 114.273438 C 208.589844 114.207031 208.265625 114.105469 207.953125 113.976562 C 207.636719 113.847656 207.335938 113.6875 207.054688 113.496094 C 206.769531 113.308594 206.507812 113.089844 206.269531 112.851562 C 206.027344 112.609375 205.8125 112.347656 205.621094 112.0625 C 205.433594 111.78125 205.273438 111.480469 205.140625 111.167969 C 205.011719 110.851562 204.914062 110.527344 204.84375 110.191406 C 204.777344 109.859375 204.746094 109.519531 204.746094 109.179688 Z M 222.796875 119.707031 C 222.796875 119.363281 222.832031 119.027344 222.898438 118.691406 C 222.964844 118.359375 223.0625 118.035156 223.191406 117.71875 C 223.324219 117.402344 223.484375 117.105469 223.671875 116.820312 C 223.863281 116.535156 224.078125 116.273438 224.316406 116.03125 C 224.558594 115.792969 224.820312 115.578125 225.105469 115.386719 C 225.390625 115.195312 225.6875 115.039062 226.003906 114.90625 C 226.316406 114.777344 226.644531 114.675781 226.976562 114.609375 C 227.3125 114.542969 227.648438 114.511719 227.992188 114.511719 C 228.332031 114.511719 228.667969 114.542969 229.003906 114.609375 C 229.339844 114.675781 229.664062 114.777344 229.976562 114.90625 C 230.292969 115.035156 230.59375 115.195312 230.875 115.386719 C 231.160156 115.574219 231.421875 115.789062 231.664062 116.03125 C 231.90625 116.273438 232.121094 116.535156 232.308594 116.820312 C 232.5 117.101562 232.660156 117.402344 232.789062 117.714844 C 232.921875 118.03125 233.019531 118.355469 233.085938 118.691406 C 233.152344 119.023438 233.183594 119.363281 233.183594 119.703125 C 233.183594 120.046875 233.152344 120.382812 233.085938 120.71875 C 233.019531 121.050781 232.921875 121.375 232.789062 121.691406 C 232.660156 122.007812 232.5 122.304688 232.308594 122.589844 C 232.121094 122.875 231.90625 123.136719 231.664062 123.375 C 231.421875 123.617188 231.160156 123.832031 230.878906 124.023438 C 230.59375 124.210938 230.292969 124.371094 229.980469 124.503906 C 229.664062 124.632812 229.339844 124.730469 229.003906 124.796875 C 228.671875 124.863281 228.332031 124.898438 227.992188 124.898438 C 227.652344 124.898438 227.3125 124.863281 226.980469 124.796875 C 226.644531 124.730469 226.320312 124.632812 226.003906 124.5 C 225.691406 124.371094 225.390625 124.210938 225.109375 124.019531 C 224.824219 123.832031 224.5625 123.617188 224.320312 123.375 C 224.082031 123.132812 223.867188 122.871094 223.675781 122.589844 C 223.484375 122.304688 223.328125 122.007812 223.195312 121.691406 C 223.066406 121.378906 222.964844 121.050781 222.898438 120.71875 C 222.832031 120.382812 222.796875 120.046875 222.796875 119.707031 Z M 241.964844 150.308594 C 241.492188 150.3125 241.023438 150.351562 240.558594 150.433594 C 240.09375 150.515625 239.640625 150.636719 239.195312 150.800781 C 238.75 150.960938 238.324219 151.15625 237.914062 151.394531 C 237.507812 151.628906 237.121094 151.894531 236.757812 152.199219 C 236.394531 152.5 236.058594 152.832031 235.753906 153.191406 C 235.449219 153.550781 235.179688 153.933594 234.9375 154.34375 C 234.699219 154.75 234.5 155.175781 234.335938 155.617188 C 234.167969 156.058594 234.042969 156.511719 233.957031 156.976562 L 211.941406 156.976562 C 211.789062 154.359375 211.230469 151.835938 210.265625 149.398438 L 226.402344 149.398438 C 226.804688 149.398438 227.195312 149.320312 227.570312 149.164062 C 227.945312 149.007812 228.277344 148.785156 228.566406 148.5 C 228.851562 148.210938 229.074219 147.878906 229.230469 147.507812 C 229.386719 147.132812 229.464844 146.742188 229.464844 146.335938 L 229.464844 127.707031 C 229.792969 127.648438 230.121094 127.566406 230.4375 127.464844 C 230.757812 127.367188 231.070312 127.246094 231.375 127.105469 C 231.679688 126.96875 231.976562 126.808594 232.261719 126.632812 C 232.546875 126.457031 232.820312 126.265625 233.082031 126.054688 C 233.34375 125.847656 233.589844 125.621094 233.824219 125.382812 C 234.058594 125.140625 234.277344 124.890625 234.476562 124.621094 C 234.679688 124.355469 234.867188 124.078125 235.035156 123.785156 C 235.203125 123.496094 235.351562 123.199219 235.484375 122.890625 C 235.613281 122.582031 235.726562 122.265625 235.816406 121.945312 C 235.910156 121.621094 235.980469 121.292969 236.035156 120.964844 C 236.085938 120.632812 236.117188 120.300781 236.128906 119.964844 C 236.140625 119.628906 236.128906 119.296875 236.097656 118.960938 C 236.070312 118.628906 236.019531 118.296875 235.945312 117.96875 C 235.875 117.644531 235.785156 117.320312 235.671875 117.003906 C 235.5625 116.6875 235.433594 116.382812 235.28125 116.082031 C 235.132812 115.78125 234.96875 115.492188 234.78125 115.210938 C 234.597656 114.933594 234.394531 114.664062 234.179688 114.410156 C 233.960938 114.15625 233.726562 113.914062 233.480469 113.691406 C 233.234375 113.464844 232.972656 113.253906 232.699219 113.058594 C 232.425781 112.867188 232.140625 112.691406 231.847656 112.53125 C 231.550781 112.371094 231.246094 112.234375 230.933594 112.113281 C 230.621094 111.992188 230.304688 111.890625 229.980469 111.808594 C 229.652344 111.726562 229.324219 111.664062 228.992188 111.621094 C 228.660156 111.582031 228.328125 111.5625 227.992188 111.5625 C 227.65625 111.5625 227.324219 111.582031 226.988281 111.621094 C 226.65625 111.664062 226.328125 111.726562 226.003906 111.808594 C 225.679688 111.890625 225.359375 111.992188 225.046875 112.113281 C 224.734375 112.234375 224.433594 112.371094 224.136719 112.53125 C 223.839844 112.691406 223.558594 112.867188 223.285156 113.058594 C 223.011719 113.253906 222.75 113.464844 222.503906 113.691406 C 222.253906 113.914062 222.023438 114.15625 221.804688 114.410156 C 221.585938 114.664062 221.386719 114.933594 221.199219 115.210938 C 221.015625 115.492188 220.847656 115.78125 220.699219 116.082031 C 220.550781 116.382812 220.421875 116.6875 220.308594 117.003906 C 220.199219 117.320312 220.109375 117.644531 220.035156 117.96875 C 219.964844 118.296875 219.914062 118.628906 219.882812 118.960938 C 219.855469 119.296875 219.84375 119.628906 219.855469 119.964844 C 219.867188 120.300781 219.898438 120.632812 219.949219 120.964844 C 220 121.292969 220.074219 121.621094 220.164062 121.945312 C 220.257812 122.265625 220.367188 122.582031 220.5 122.890625 C 220.632812 123.199219 220.78125 123.496094 220.949219 123.785156 C 221.117188 124.078125 221.300781 124.355469 221.503906 124.621094 C 221.707031 124.890625 221.925781 125.140625 222.160156 125.382812 C 222.394531 125.621094 222.640625 125.847656 222.902344 126.054688 C 223.164062 126.265625 223.4375 126.457031 223.722656 126.632812 C 224.007812 126.808594 224.304688 126.96875 224.609375 127.105469 C 224.914062 127.246094 225.222656 127.367188 225.542969 127.464844 C 225.863281 127.566406 226.1875 127.648438 226.519531 127.707031 L 226.519531 146.335938 C 226.515625 146.410156 226.476562 146.449219 226.402344 146.453125 L 208.878906 146.453125 C 207.222656 143.480469 205.046875 140.953125 202.359375 138.871094 L 208.351562 138.871094 C 208.753906 138.871094 209.144531 138.792969 209.519531 138.636719 C 209.894531 138.480469 210.226562 138.261719 210.511719 137.972656 C 210.800781 137.6875 211.019531 137.355469 211.175781 136.980469 C 211.332031 136.605469 211.410156 136.214844 211.410156 135.808594 L 211.410156 117.183594 C 211.738281 117.125 212.0625 117.042969 212.382812 116.941406 C 212.703125 116.839844 213.015625 116.722656 213.320312 116.582031 C 213.625 116.441406 213.917969 116.285156 214.203125 116.109375 C 214.488281 115.933594 214.761719 115.742188 215.023438 115.53125 C 215.285156 115.324219 215.535156 115.097656 215.769531 114.859375 C 216 114.617188 216.21875 114.363281 216.421875 114.097656 C 216.625 113.832031 216.808594 113.550781 216.976562 113.261719 C 217.144531 112.972656 217.296875 112.671875 217.425781 112.367188 C 217.558594 112.058594 217.671875 111.742188 217.761719 111.417969 C 217.855469 111.097656 217.925781 110.769531 217.980469 110.441406 C 218.03125 110.109375 218.0625 109.777344 218.074219 109.441406 C 218.082031 109.105469 218.074219 108.773438 218.042969 108.4375 C 218.011719 108.105469 217.960938 107.773438 217.890625 107.445312 C 217.820312 107.117188 217.726562 106.796875 217.617188 106.480469 C 217.507812 106.164062 217.375 105.855469 217.226562 105.558594 C 217.078125 105.257812 216.910156 104.96875 216.726562 104.6875 C 216.542969 104.40625 216.339844 104.140625 216.121094 103.886719 C 215.90625 103.632812 215.671875 103.390625 215.425781 103.164062 C 215.175781 102.9375 214.917969 102.730469 214.644531 102.535156 C 214.371094 102.34375 214.085938 102.164062 213.789062 102.007812 C 213.496094 101.847656 213.191406 101.707031 212.878906 101.585938 C 212.566406 101.464844 212.25 101.363281 211.921875 101.28125 C 211.597656 101.203125 211.269531 101.140625 210.9375 101.097656 C 210.605469 101.058594 210.269531 101.035156 209.9375 101.035156 C 209.601562 101.035156 209.265625 101.058594 208.933594 101.097656 C 208.601562 101.140625 208.273438 101.203125 207.949219 101.28125 C 207.625 101.363281 207.304688 101.464844 206.992188 101.585938 C 206.679688 101.707031 206.375 101.847656 206.082031 102.007812 C 205.785156 102.164062 205.5 102.34375 205.226562 102.535156 C 204.953125 102.730469 204.695312 102.9375 204.445312 103.164062 C 204.199219 103.390625 203.96875 103.632812 203.75 103.886719 C 203.53125 104.140625 203.328125 104.40625 203.144531 104.6875 C 202.960938 104.96875 202.792969 105.257812 202.644531 105.558594 C 202.496094 105.855469 202.367188 106.164062 202.253906 106.480469 C 202.144531 106.796875 202.050781 107.117188 201.980469 107.445312 C 201.910156 107.773438 201.859375 108.105469 201.828125 108.4375 C 201.796875 108.773438 201.789062 109.105469 201.800781 109.441406 C 201.808594 109.777344 201.839844 110.109375 201.894531 110.441406 C 201.945312 110.769531 202.015625 111.097656 202.109375 111.417969 C 202.203125 111.742188 202.3125 112.058594 202.445312 112.367188 C 202.574219 112.671875 202.726562 112.972656 202.894531 113.261719 C 203.0625 113.550781 203.246094 113.832031 203.449219 114.097656 C 203.652344 114.363281 203.871094 114.617188 204.105469 114.859375 C 204.339844 115.097656 204.585938 115.324219 204.847656 115.53125 C 205.109375 115.742188 205.382812 115.933594 205.667969 116.109375 C 205.953125 116.285156 206.246094 116.441406 206.550781 116.582031 C 206.859375 116.722656 207.167969 116.839844 207.488281 116.941406 C 207.808594 117.042969 208.132812 117.125 208.464844 117.183594 L 208.464844 135.808594 C 208.460938 135.886719 208.421875 135.925781 208.347656 135.925781 L 197.488281 135.925781 C 197.019531 135.714844 196.542969 135.515625 196.0625 135.332031 C 195.582031 135.148438 195.09375 134.980469 194.601562 134.824219 C 194.109375 134.671875 193.613281 134.535156 193.113281 134.410156 C 192.613281 134.289062 192.109375 134.183594 191.601562 134.09375 C 191.097656 134 190.585938 133.925781 190.074219 133.867188 C 189.5625 133.808594 189.050781 133.765625 188.535156 133.738281 C 188.019531 133.710938 187.507812 133.699219 186.992188 133.707031 C 186.476562 133.710938 185.960938 133.730469 185.449219 133.769531 C 184.933594 133.804688 184.421875 133.859375 183.910156 133.929688 C 183.402344 134 182.894531 134.082031 182.386719 134.183594 C 181.882812 134.285156 181.382812 134.402344 180.882812 134.535156 C 180.386719 134.667969 179.890625 134.8125 179.402344 134.976562 C 178.914062 135.140625 178.433594 135.320312 177.953125 135.511719 C 177.476562 135.703125 177.003906 135.914062 176.542969 136.136719 C 176.078125 136.359375 175.621094 136.59375 175.167969 136.847656 C 174.71875 137.097656 174.277344 137.363281 173.84375 137.640625 C 173.410156 137.921875 172.988281 138.210938 172.574219 138.519531 C 172.15625 138.824219 171.753906 139.140625 171.359375 139.472656 C 170.960938 139.800781 170.578125 140.144531 170.203125 140.5 C 169.832031 140.855469 169.46875 141.21875 169.117188 141.597656 C 168.765625 141.972656 168.429688 142.363281 168.101562 142.761719 C 167.773438 143.160156 167.460938 143.566406 167.160156 143.984375 C 166.859375 144.402344 166.570312 144.828125 166.296875 145.265625 C 166.023438 145.703125 165.761719 146.144531 165.515625 146.597656 C 165.269531 147.050781 165.035156 147.507812 164.816406 147.976562 C 164.601562 148.441406 164.394531 148.917969 164.207031 149.394531 C 164.019531 149.875 163.847656 150.359375 163.6875 150.851562 C 163.53125 151.339844 163.386719 151.835938 163.257812 152.335938 C 163.132812 152.832031 163.019531 153.335938 162.925781 153.84375 C 162.828125 154.347656 162.75 154.855469 162.683594 155.367188 C 162.621094 155.878906 162.570312 156.390625 162.539062 156.90625 C 162.507812 157.421875 162.492188 157.933594 162.492188 158.449219 C 162.492188 158.964844 162.507812 159.480469 162.539062 159.996094 C 162.570312 160.507812 162.621094 161.019531 162.683594 161.53125 C 162.75 162.042969 162.828125 162.550781 162.925781 163.058594 C 163.019531 163.5625 163.132812 164.066406 163.257812 164.566406 C 163.386719 165.066406 163.53125 165.558594 163.6875 166.050781 C 163.847656 166.539062 164.019531 167.023438 164.207031 167.503906 C 164.394531 167.984375 164.601562 168.457031 164.816406 168.925781 C 165.035156 169.390625 165.269531 169.851562 165.515625 170.300781 C 165.761719 170.753906 166.023438 171.199219 166.296875 171.632812 C 166.570312 172.070312 166.859375 172.496094 167.160156 172.914062 C 167.460938 173.332031 167.773438 173.742188 168.101562 174.140625 C 168.429688 174.539062 168.765625 174.925781 169.117188 175.304688 C 169.46875 175.679688 169.832031 176.046875 170.203125 176.402344 C 170.578125 176.753906 170.960938 177.097656 171.359375 177.429688 C 171.753906 177.757812 172.15625 178.078125 172.574219 178.382812 C 172.988281 178.6875 173.410156 178.980469 173.84375 179.257812 C 174.277344 179.539062 174.71875 179.800781 175.167969 180.054688 C 175.621094 180.304688 176.078125 180.542969 176.542969 180.765625 C 177.003906 180.988281 177.476562 181.195312 177.953125 181.390625 C 178.433594 181.582031 178.914062 181.761719 179.402344 181.921875 C 179.890625 182.085938 180.386719 182.234375 180.882812 182.367188 C 181.382812 182.5 181.882812 182.617188 182.386719 182.714844 C 182.894531 182.816406 183.402344 182.902344 183.910156 182.972656 C 184.421875 183.039062 184.933594 183.09375 185.449219 183.132812 C 185.960938 183.167969 186.476562 183.191406 186.992188 183.195312 C 187.507812 183.199219 188.019531 183.1875 188.535156 183.164062 C 189.050781 183.136719 189.5625 183.09375 190.074219 183.03125 C 190.585938 182.972656 191.097656 182.898438 191.601562 182.808594 C 192.109375 182.71875 192.613281 182.609375 193.113281 182.488281 C 193.613281 182.367188 194.109375 182.226562 194.601562 182.074219 C 195.09375 181.921875 195.582031 181.753906 196.0625 181.570312 C 196.542969 181.386719 197.019531 181.1875 197.488281 180.972656 L 208.351562 180.972656 C 208.425781 180.976562 208.464844 181.015625 208.464844 181.089844 L 208.464844 199.71875 C 208.136719 199.777344 207.8125 199.859375 207.492188 199.960938 C 207.171875 200.058594 206.859375 200.179688 206.554688 200.320312 C 206.25 200.457031 205.953125 200.617188 205.667969 200.792969 C 205.382812 200.96875 205.109375 201.160156 204.847656 201.371094 C 204.585938 201.578125 204.339844 201.804688 204.105469 202.042969 C 203.871094 202.285156 203.652344 202.539062 203.449219 202.804688 C 203.246094 203.070312 203.0625 203.351562 202.894531 203.640625 C 202.726562 203.929688 202.578125 204.230469 202.445312 204.539062 C 202.3125 204.847656 202.203125 205.160156 202.109375 205.484375 C 202.015625 205.804688 201.945312 206.132812 201.894531 206.464844 C 201.839844 206.796875 201.808594 207.128906 201.800781 207.464844 C 201.789062 207.796875 201.796875 208.132812 201.828125 208.464844 C 201.859375 208.800781 201.910156 209.132812 201.980469 209.457031 C 202.050781 209.785156 202.144531 210.109375 202.253906 210.425781 C 202.367188 210.742188 202.496094 211.046875 202.644531 211.347656 C 202.792969 211.648438 202.960938 211.9375 203.144531 212.21875 C 203.332031 212.5 203.53125 212.765625 203.75 213.019531 C 203.96875 213.273438 204.199219 213.515625 204.449219 213.742188 C 204.695312 213.96875 204.957031 214.175781 205.230469 214.371094 C 205.503906 214.566406 205.789062 214.742188 206.082031 214.898438 C 206.378906 215.058594 206.679688 215.199219 206.992188 215.320312 C 207.304688 215.441406 207.625 215.542969 207.949219 215.625 C 208.277344 215.707031 208.605469 215.769531 208.9375 215.808594 C 209.269531 215.851562 209.605469 215.871094 209.9375 215.871094 C 210.273438 215.871094 210.609375 215.851562 210.941406 215.808594 C 211.273438 215.769531 211.601562 215.707031 211.925781 215.625 C 212.253906 215.542969 212.570312 215.441406 212.882812 215.320312 C 213.195312 215.199219 213.5 215.058594 213.796875 214.898438 C 214.089844 214.742188 214.375 214.566406 214.648438 214.371094 C 214.921875 214.175781 215.183594 213.96875 215.429688 213.742188 C 215.675781 213.515625 215.910156 213.273438 216.128906 213.019531 C 216.34375 212.765625 216.546875 212.5 216.730469 212.21875 C 216.917969 211.9375 217.082031 211.648438 217.234375 211.347656 C 217.382812 211.046875 217.511719 210.742188 217.621094 210.425781 C 217.734375 210.109375 217.824219 209.785156 217.894531 209.457031 C 217.96875 209.132812 218.019531 208.800781 218.050781 208.464844 C 218.078125 208.132812 218.089844 207.796875 218.078125 207.464844 C 218.066406 207.128906 218.035156 206.796875 217.984375 206.464844 C 217.933594 206.132812 217.859375 205.804688 217.769531 205.484375 C 217.675781 205.160156 217.5625 204.847656 217.433594 204.539062 C 217.300781 204.230469 217.152344 203.929688 216.984375 203.640625 C 216.816406 203.351562 216.628906 203.070312 216.425781 202.804688 C 216.222656 202.539062 216.007812 202.285156 215.773438 202.042969 C 215.539062 201.804688 215.289062 201.578125 215.027344 201.371094 C 214.765625 201.160156 214.492188 200.96875 214.207031 200.792969 C 213.921875 200.617188 213.628906 200.457031 213.324219 200.320312 C 213.019531 200.179688 212.707031 200.058594 212.386719 199.960938 C 212.066406 199.859375 211.742188 199.777344 211.410156 199.71875 L 211.410156 181.089844 C 211.410156 180.683594 211.332031 180.292969 211.179688 179.917969 C 211.023438 179.542969 210.800781 179.214844 210.515625 178.925781 C 210.226562 178.636719 209.898438 178.417969 209.519531 178.261719 C 209.144531 178.105469 208.753906 178.027344 208.351562 178.027344 L 202.359375 178.027344 C 205.046875 175.945312 207.222656 173.417969 208.878906 170.449219 L 226.402344 170.449219 C 226.476562 170.449219 226.515625 170.488281 226.519531 170.566406 L 226.519531 189.191406 C 226.1875 189.253906 225.863281 189.332031 225.542969 189.433594 C 225.226562 189.535156 224.914062 189.65625 224.609375 189.792969 C 224.304688 189.933594 224.007812 190.089844 223.722656 190.265625 C 223.4375 190.441406 223.164062 190.632812 222.902344 190.84375 C 222.640625 191.054688 222.394531 191.277344 222.160156 191.515625 C 221.925781 191.757812 221.710938 192.011719 221.507812 192.277344 C 221.304688 192.542969 221.121094 192.824219 220.953125 193.113281 C 220.785156 193.402344 220.632812 193.703125 220.503906 194.007812 C 220.371094 194.316406 220.261719 194.632812 220.167969 194.953125 C 220.074219 195.277344 220.003906 195.601562 219.953125 195.933594 C 219.898438 196.265625 219.867188 196.597656 219.859375 196.933594 C 219.847656 197.269531 219.855469 197.601562 219.886719 197.933594 C 219.917969 198.269531 219.96875 198.597656 220.039062 198.925781 C 220.109375 199.253906 220.203125 199.574219 220.3125 199.890625 C 220.421875 200.207031 220.554688 200.515625 220.703125 200.816406 C 220.851562 201.117188 221.019531 201.40625 221.203125 201.683594 C 221.386719 201.964844 221.589844 202.230469 221.808594 202.484375 C 222.023438 202.738281 222.257812 202.980469 222.503906 203.207031 C 222.753906 203.433594 223.011719 203.640625 223.285156 203.835938 C 223.558594 204.027344 223.84375 204.203125 224.136719 204.363281 C 224.433594 204.523438 224.738281 204.660156 225.050781 204.78125 C 225.363281 204.902344 225.679688 205.003906 226.003906 205.085938 C 226.328125 205.167969 226.65625 205.230469 226.992188 205.273438 C 227.324219 205.3125 227.65625 205.332031 227.992188 205.332031 C 228.328125 205.332031 228.660156 205.3125 228.992188 205.273438 C 229.324219 205.230469 229.652344 205.167969 229.976562 205.085938 C 230.304688 205.003906 230.621094 204.902344 230.933594 204.78125 C 231.246094 204.660156 231.550781 204.523438 231.84375 204.363281 C 232.140625 204.203125 232.425781 204.027344 232.699219 203.835938 C 232.96875 203.640625 233.230469 203.433594 233.476562 203.207031 C 233.726562 202.980469 233.957031 202.738281 234.175781 202.484375 C 234.394531 202.230469 234.59375 201.964844 234.78125 201.683594 C 234.964844 201.40625 235.132812 201.117188 235.28125 200.816406 C 235.429688 200.515625 235.558594 200.207031 235.671875 199.890625 C 235.78125 199.574219 235.871094 199.253906 235.945312 198.925781 C 236.015625 198.597656 236.066406 198.269531 236.097656 197.933594 C 236.125 197.601562 236.136719 197.269531 236.125 196.933594 C 236.113281 196.597656 236.082031 196.265625 236.03125 195.933594 C 235.980469 195.601562 235.90625 195.277344 235.816406 194.953125 C 235.722656 194.632812 235.613281 194.316406 235.480469 194.007812 C 235.347656 193.703125 235.199219 193.402344 235.03125 193.113281 C 234.863281 192.824219 234.679688 192.542969 234.476562 192.277344 C 234.273438 192.011719 234.054688 191.757812 233.820312 191.515625 C 233.589844 191.277344 233.339844 191.054688 233.078125 190.84375 C 232.816406 190.632812 232.542969 190.441406 232.257812 190.265625 C 231.972656 190.089844 231.679688 189.933594 231.375 189.792969 C 231.070312 189.65625 230.757812 189.535156 230.4375 189.433594 C 230.117188 189.332031 229.792969 189.253906 229.464844 189.191406 L 229.464844 170.566406 C 229.464844 170.160156 229.386719 169.769531 229.230469 169.394531 C 229.074219 169.019531 228.851562 168.6875 228.566406 168.402344 C 228.277344 168.113281 227.945312 167.894531 227.570312 167.738281 C 227.195312 167.582031 226.804688 167.503906 226.402344 167.503906 L 210.273438 167.503906 C 211.234375 165.066406 211.792969 162.539062 211.949219 159.925781 L 233.964844 159.925781 C 234.054688 160.429688 234.195312 160.921875 234.382812 161.398438 C 234.566406 161.878906 234.796875 162.335938 235.070312 162.769531 C 235.34375 163.207031 235.652344 163.613281 236.003906 163.988281 C 236.351562 164.363281 236.734375 164.707031 237.148438 165.007812 C 237.5625 165.3125 238 165.578125 238.464844 165.796875 C 238.929688 166.019531 239.410156 166.195312 239.90625 166.324219 C 240.402344 166.453125 240.90625 166.535156 241.421875 166.570312 C 241.933594 166.605469 242.445312 166.59375 242.953125 166.53125 C 243.464844 166.46875 243.964844 166.359375 244.453125 166.203125 C 244.941406 166.042969 245.410156 165.84375 245.863281 165.597656 C 246.3125 165.351562 246.738281 165.066406 247.136719 164.738281 C 247.53125 164.414062 247.894531 164.054688 248.222656 163.660156 C 248.550781 163.265625 248.839844 162.84375 249.089844 162.394531 C 249.339844 161.945312 249.542969 161.472656 249.703125 160.988281 C 249.863281 160.5 249.976562 160 250.042969 159.488281 C 250.105469 158.980469 250.125 158.46875 250.09375 157.957031 C 250.0625 157.445312 249.984375 156.9375 249.855469 156.441406 C 249.730469 155.941406 249.558594 155.460938 249.339844 154.996094 C 249.121094 154.53125 248.863281 154.089844 248.558594 153.675781 C 248.257812 153.257812 247.921875 152.875 247.546875 152.523438 C 247.171875 152.171875 246.769531 151.855469 246.335938 151.582031 C 245.902344 151.304688 245.445312 151.074219 244.96875 150.882812 C 244.492188 150.695312 244 150.550781 243.496094 150.457031 C 242.992188 150.359375 242.484375 150.308594 241.96875 150.308594 Z M 127.328125 149.300781 L 127.328125 167.597656 C 127.328125 167.847656 127.40625 168.066406 127.574219 168.25 C 127.738281 168.4375 127.941406 168.546875 128.191406 168.578125 L 138.960938 169.898438 C 139.261719 169.9375 139.523438 170.054688 139.75 170.25 C 139.976562 170.449219 140.128906 170.691406 140.203125 170.984375 C 141.316406 175.15625 142.953125 179.113281 145.121094 182.847656 C 145.273438 183.105469 145.335938 183.386719 145.316406 183.6875 C 145.296875 183.988281 145.191406 184.253906 145.007812 184.492188 L 138.328125 193.046875 C 138.171875 193.242188 138.101562 193.464844 138.117188 193.710938 C 138.132812 193.960938 138.230469 194.171875 138.40625 194.347656 L 151.34375 207.285156 C 151.515625 207.464844 151.726562 207.5625 151.976562 207.578125 C 152.226562 207.589844 152.445312 207.519531 152.640625 207.367188 L 161.195312 200.683594 C 161.429688 200.5 161.699219 200.394531 162 200.375 C 162.300781 200.355469 162.582031 200.421875 162.839844 200.570312 C 166.574219 202.738281 170.53125 204.378906 174.703125 205.488281 C 174.996094 205.566406 175.238281 205.71875 175.4375 205.945312 C 175.632812 206.171875 175.75 206.433594 175.789062 206.734375 L 177.109375 217.503906 C 177.140625 217.75 177.25 217.953125 177.4375 218.121094 C 177.621094 218.285156 177.839844 218.363281 178.089844 218.363281 L 185.773438 218.363281 L 185.773438 189.546875 C 184.785156 189.5 183.800781 189.40625 182.820312 189.265625 C 181.84375 189.125 180.875 188.9375 179.914062 188.703125 C 178.953125 188.472656 178.003906 188.191406 177.070312 187.871094 C 176.136719 187.546875 175.21875 187.179688 174.320312 186.769531 C 173.417969 186.359375 172.542969 185.90625 171.683594 185.410156 C 170.828125 184.917969 169.996094 184.382812 169.191406 183.808594 C 168.386719 183.238281 167.609375 182.625 166.863281 181.980469 C 166.117188 181.332031 165.402344 180.648438 164.71875 179.933594 C 164.035156 179.21875 163.390625 178.472656 162.777344 177.695312 C 162.167969 176.917969 161.59375 176.113281 161.058594 175.28125 C 160.523438 174.449219 160.03125 173.59375 159.578125 172.714844 C 159.125 171.835938 158.714844 170.941406 158.347656 170.023438 C 157.980469 169.105469 157.65625 168.171875 157.378906 167.222656 C 157.097656 166.273438 156.867188 165.3125 156.679688 164.34375 C 156.492188 163.371094 156.351562 162.394531 156.257812 161.410156 C 156.164062 160.425781 156.117188 159.4375 156.117188 158.449219 C 156.117188 157.460938 156.164062 156.476562 156.257812 155.492188 C 156.351562 154.507812 156.492188 153.527344 156.679688 152.558594 C 156.867188 151.585938 157.097656 150.628906 157.378906 149.679688 C 157.65625 148.730469 157.980469 147.796875 158.347656 146.878906 C 158.714844 145.960938 159.125 145.0625 159.578125 144.183594 C 160.03125 143.304688 160.523438 142.449219 161.058594 141.617188 C 161.59375 140.785156 162.167969 139.980469 162.777344 139.203125 C 163.390625 138.425781 164.035156 137.679688 164.71875 136.964844 C 165.402344 136.25 166.117188 135.570312 166.863281 134.921875 C 167.609375 134.273438 168.386719 133.664062 169.191406 133.089844 C 169.996094 132.515625 170.828125 131.984375 171.683594 131.488281 C 172.542969 130.996094 173.417969 130.542969 174.320312 130.132812 C 175.21875 129.722656 176.136719 129.355469 177.070312 129.03125 C 178.003906 128.707031 178.953125 128.429688 179.914062 128.195312 C 180.875 127.964844 181.84375 127.777344 182.820312 127.636719 C 183.800781 127.496094 184.785156 127.402344 185.773438 127.355469 L 185.773438 98.535156 L 178.089844 98.535156 C 177.839844 98.535156 177.621094 98.617188 177.433594 98.78125 C 177.25 98.945312 177.140625 99.152344 177.109375 99.398438 L 175.789062 110.167969 C 175.75 110.46875 175.632812 110.730469 175.4375 110.957031 C 175.238281 111.183594 174.996094 111.335938 174.703125 111.414062 C 170.53125 112.523438 166.574219 114.160156 162.839844 116.328125 C 162.582031 116.480469 162.300781 116.546875 162 116.523438 C 161.699219 116.503906 161.433594 116.402344 161.195312 116.214844 L 152.640625 109.535156 C 152.445312 109.378906 152.222656 109.3125 151.976562 109.328125 C 151.730469 109.34375 151.515625 109.4375 151.34375 109.613281 L 138.40625 122.550781 C 138.230469 122.722656 138.132812 122.933594 138.117188 123.183594 C 138.101562 123.433594 138.171875 123.65625 138.328125 123.847656 L 145.007812 132.402344 C 145.191406 132.640625 145.296875 132.90625 145.316406 133.207031 C 145.335938 133.507812 145.273438 133.789062 145.121094 134.050781 C 142.953125 137.785156 141.316406 141.738281 140.203125 145.910156 C 140.128906 146.203125 139.976562 146.445312 139.75 146.644531 C 139.523438 146.839844 139.261719 146.957031 138.960938 146.996094 L 128.191406 148.320312 C 127.945312 148.347656 127.738281 148.457031 127.574219 148.644531 C 127.410156 148.832031 127.328125 149.046875 127.328125 149.296875 Z M 127.832031 171.5 L 137.621094 172.703125 C 138.699219 176.460938 140.183594 180.042969 142.078125 183.460938 L 136.003906 191.234375 C 135.710938 191.609375 135.492188 192.027344 135.351562 192.484375 C 135.207031 192.945312 135.152344 193.410156 135.179688 193.890625 C 135.210938 194.367188 135.324219 194.828125 135.519531 195.261719 C 135.71875 195.699219 135.984375 196.089844 136.324219 196.425781 L 149.265625 209.371094 C 149.601562 209.707031 149.992188 209.976562 150.429688 210.171875 C 150.867188 210.371094 151.324219 210.480469 151.800781 210.511719 C 152.28125 210.542969 152.75 210.484375 153.207031 210.34375 C 153.664062 210.203125 154.082031 209.984375 154.460938 209.6875 L 162.238281 203.613281 C 165.652344 205.507812 169.238281 206.992188 172.996094 208.070312 L 174.195312 217.859375 C 174.257812 218.335938 174.398438 218.785156 174.621094 219.210938 C 174.84375 219.632812 175.136719 220.003906 175.496094 220.324219 C 175.855469 220.640625 176.257812 220.882812 176.707031 221.054688 C 177.152344 221.226562 177.617188 221.308594 178.097656 221.308594 L 187.242188 221.308594 C 187.4375 221.3125 187.625 221.273438 187.804688 221.199219 C 187.988281 221.125 188.144531 221.019531 188.285156 220.878906 C 188.421875 220.742188 188.527344 220.582031 188.601562 220.402344 C 188.679688 220.222656 188.714844 220.035156 188.714844 219.839844 L 188.714844 188.105469 C 188.714844 187.910156 188.679688 187.722656 188.601562 187.542969 C 188.527344 187.363281 188.421875 187.203125 188.285156 187.0625 C 188.144531 186.925781 187.988281 186.820312 187.804688 186.746094 C 187.625 186.671875 187.4375 186.632812 187.242188 186.632812 C 186.320312 186.632812 185.398438 186.585938 184.480469 186.496094 C 183.5625 186.40625 182.648438 186.269531 181.746094 186.089844 C 180.839844 185.910156 179.945312 185.6875 179.0625 185.417969 C 178.179688 185.152344 177.308594 184.839844 176.457031 184.488281 C 175.605469 184.132812 174.773438 183.738281 173.957031 183.304688 C 173.144531 182.871094 172.351562 182.394531 171.585938 181.882812 C 170.816406 181.371094 170.078125 180.820312 169.363281 180.234375 C 168.652344 179.648438 167.96875 179.03125 167.316406 178.378906 C 166.660156 177.726562 166.042969 177.042969 165.457031 176.328125 C 164.871094 175.617188 164.324219 174.875 163.808594 174.109375 C 163.296875 173.339844 162.824219 172.550781 162.386719 171.734375 C 161.953125 170.921875 161.558594 170.085938 161.207031 169.234375 C 160.851562 168.382812 160.542969 167.515625 160.273438 166.632812 C 160.007812 165.746094 159.78125 164.855469 159.601562 163.949219 C 159.421875 163.042969 159.285156 162.132812 159.195312 161.210938 C 159.105469 160.292969 159.058594 159.375 159.058594 158.449219 C 159.058594 157.527344 159.105469 156.605469 159.195312 155.6875 C 159.285156 154.769531 159.421875 153.855469 159.601562 152.953125 C 159.78125 152.046875 160.007812 151.152344 160.273438 150.269531 C 160.542969 149.386719 160.851562 148.519531 161.207031 147.664062 C 161.558594 146.8125 161.953125 145.980469 162.386719 145.164062 C 162.824219 144.351562 163.296875 143.558594 163.808594 142.792969 C 164.324219 142.027344 164.871094 141.285156 165.457031 140.570312 C 166.042969 139.859375 166.660156 139.175781 167.316406 138.523438 C 167.96875 137.871094 168.652344 137.25 169.363281 136.664062 C 170.078125 136.078125 170.816406 135.53125 171.585938 135.015625 C 172.351562 134.503906 173.144531 134.03125 173.957031 133.59375 C 174.773438 133.160156 175.605469 132.765625 176.457031 132.414062 C 177.308594 132.058594 178.179688 131.75 179.0625 131.480469 C 179.945312 131.214844 180.839844 130.988281 181.746094 130.808594 C 182.648438 130.628906 183.5625 130.492188 184.480469 130.402344 C 185.398438 130.3125 186.320312 130.269531 187.242188 130.269531 C 187.4375 130.269531 187.625 130.230469 187.804688 130.15625 C 187.988281 130.082031 188.144531 129.972656 188.285156 129.835938 C 188.421875 129.699219 188.527344 129.539062 188.601562 129.359375 C 188.679688 129.175781 188.714844 128.988281 188.714844 128.792969 L 188.714844 97.0625 C 188.714844 96.867188 188.679688 96.679688 188.601562 96.5 C 188.527344 96.316406 188.421875 96.160156 188.285156 96.019531 C 188.144531 95.882812 187.988281 95.777344 187.804688 95.703125 C 187.625 95.625 187.4375 95.589844 187.242188 95.589844 L 178.089844 95.589844 C 177.613281 95.589844 177.148438 95.675781 176.699219 95.84375 C 176.25 96.015625 175.847656 96.257812 175.488281 96.578125 C 175.128906 96.894531 174.839844 97.265625 174.613281 97.691406 C 174.390625 98.113281 174.25 98.5625 174.191406 99.039062 L 172.996094 108.832031 C 169.238281 109.90625 165.652344 111.394531 162.238281 113.289062 L 154.460938 107.210938 C 154.082031 106.917969 153.664062 106.699219 153.207031 106.558594 C 152.75 106.417969 152.28125 106.359375 151.800781 106.390625 C 151.324219 106.417969 150.867188 106.53125 150.429688 106.726562 C 149.992188 106.925781 149.601562 107.191406 149.265625 107.53125 L 136.324219 120.472656 C 135.984375 120.8125 135.71875 121.199219 135.519531 121.636719 C 135.324219 122.074219 135.210938 122.53125 135.179688 123.007812 C 135.152344 123.488281 135.207031 123.957031 135.351562 124.414062 C 135.492188 124.871094 135.710938 125.289062 136.003906 125.667969 L 142.078125 133.445312 C 140.183594 136.863281 138.699219 140.449219 137.621094 144.203125 L 127.832031 145.40625 C 127.355469 145.464844 126.90625 145.605469 126.484375 145.828125 C 126.058594 146.050781 125.6875 146.34375 125.371094 146.699219 C 125.054688 147.058594 124.808594 147.460938 124.640625 147.910156 C 124.46875 148.355469 124.382812 148.820312 124.382812 149.300781 L 124.382812 167.597656 C 124.382812 168.078125 124.46875 168.542969 124.636719 168.992188 C 124.808594 169.4375 125.050781 169.84375 125.367188 170.203125 C 125.6875 170.5625 126.058594 170.851562 126.480469 171.078125 C 126.90625 171.300781 127.355469 171.441406 127.832031 171.5 Z M 127.832031 171.5 "/></g><g style="fill:#000000;fill-opacity:1;"><g transform="translate(69.167142, 255.50329)"><path style="stroke:none" d="M 9.609375 0.078125 L 8.46875 0.03125 L 7.40625 -0.328125 L 6.921875 -1.140625 L 7 -1.84375 L 7.03125 -3.96875 L 6.953125 -4.75 L 7 -7.734375 L 7.0625 -8.46875 L 6.953125 -13.953125 L 7.03125 -14.984375 L 7 -15.71875 L 7.03125 -16.53125 L 6.953125 -17.5625 L 7.03125 -18.734375 L 6.625 -19.46875 L 5.921875 -19.84375 L 2.421875 -19.921875 L 1.6875 -19.84375 L 1.03125 -20.203125 L 0.703125 -20.875 L 0.625 -22.015625 L 0.703125 -23.859375 L 0.65625 -24.59375 L 1.109375 -25.4375 L 1.796875 -25.8125 L 4.375 -25.65625 L 5.515625 -25.765625 L 7.6875 -25.65625 L 8.359375 -25.8125 L 9.171875 -25.734375 L 9.9375 -25.84375 L 10.640625 -25.8125 L 11.375 -25.65625 L 14.359375 -25.8125 L 15.0625 -25.734375 L 15.828125 -25.84375 L 16.53125 -25.765625 L 18.8125 -25.765625 L 19.515625 -25.296875 L 19.921875 -24.546875 L 19.875 -21.0625 L 19.4375 -20.25 L 18.8125 -19.84375 L 18.15625 -19.875 L 17.375 -19.765625 L 16.015625 -19.953125 L 14.578125 -19.875 L 13.875 -19.4375 L 13.578125 -18.328125 L 13.46875 -15.125 L 13.578125 -14.359375 L 13.515625 -8.4375 L 13.625 -7.625 L 13.546875 -6.953125 L 13.578125 -5.484375 L 13.515625 -4.71875 L 13.625 -3.3125 L 13.515625 -1.40625 L 13.140625 -0.375 L 12.078125 0 Z M 9.609375 0.078125 "/></g></g><g style="fill:#000000;fill-opacity:1;"><g transform="translate(91.952465, 255.50329)"><path style="stroke:none" d="M 12.65625 0.484375 L 11.484375 0.40625 L 10.75 0.40625 L 9.3125 0.109375 L 7.921875 -0.515625 L 7.359375 -0.84375 L 6.625 -1.171875 L 5.453125 -1.953125 L 4.890625 -2.421875 L 4.453125 -2.9375 L 3.609375 -4.265625 L 3.015625 -5.515625 L 2.65625 -7.03125 L 2.421875 -9.96875 L 2.546875 -15.90625 L 2.46875 -16.609375 L 2.578125 -17.34375 L 2.46875 -22.5 L 2.546875 -23.078125 L 2.546875 -23.96875 L 2.46875 -24.703125 L 2.9375 -25.40625 L 3.71875 -25.6875 L 4.484375 -25.8125 L 6.078125 -25.65625 L 6.8125 -25.765625 L 7.515625 -25.765625 L 8.28125 -25.4375 L 8.71875 -24.625 L 8.796875 -23.5625 L 8.71875 -22.375 L 8.796875 -21.828125 L 8.6875 -9.96875 L 8.90625 -7.84375 L 9.125 -7.140625 L 9.578125 -6.546875 L 10.15625 -6.109375 L 10.78125 -5.75 L 11.625 -5.5625 L 13.84375 -5.5625 L 15.125 -6.03125 L 15.75 -6.484375 L 16.15625 -7.21875 L 16.375 -7.765625 L 16.640625 -10.046875 L 16.5625 -24.546875 L 16.96875 -25.359375 L 17.75 -25.734375 L 19.296875 -25.625 L 21.609375 -25.6875 L 22.421875 -25.4375 L 22.890625 -24.671875 L 22.78125 -23.921875 L 22.78125 -20.875 L 22.859375 -20.28125 L 22.78125 -19.46875 L 22.859375 -18.78125 L 22.859375 -8.828125 L 22.671875 -7.0625 L 22.34375 -5.515625 L 21.984375 -4.890625 L 21.75 -4.15625 L 20.90625 -2.875 L 19.875 -1.84375 L 18.65625 -1.03125 L 17.34375 -0.328125 L 14.46875 0.40625 L 13.765625 0.375 Z M 12.65625 0.484375 "/></g></g><g style="fill:#000000;fill-opacity:1;"><g transform="translate(119.559732, 255.50329)"><path style="stroke:none" d=""/></g></g><g style="fill:#000000;fill-opacity:1;"><g transform="translate(131.744164, 255.50329)"><path style="stroke:none" d="M 9.90625 0.328125 L 8.390625 0.078125 L 6.953125 -0.4375 L 6.21875 -0.65625 L 5.515625 -1 L 5 -1.546875 L 3.71875 -2.359375 L 3.234375 -2.90625 L 2.71875 -3.390625 L 2.03125 -4.75 L 1.796875 -5.40625 L 1.65625 -6.140625 L 1.546875 -6.890625 L 1.84375 -7.65625 L 2.5 -7.953125 L 5.34375 -8.09375 L 6.03125 -7.984375 L 6.703125 -8.0625 L 7.4375 -7.765625 L 8.65625 -6.4375 L 9.28125 -6.03125 L 9.90625 -5.703125 L 11.78125 -5.515625 L 12.4375 -5.625 L 13.578125 -5.703125 L 14.828125 -6.265625 L 15.3125 -6.8125 L 15.609375 -7.734375 L 15.390625 -8.65625 L 14.90625 -9.09375 L 13.578125 -9.71875 L 7.796875 -10.375 L 6.484375 -10.828125 L 3.96875 -12.1875 L 2.609375 -13.875 L 2.03125 -15.171875 L 1.765625 -16.640625 L 1.734375 -17.78125 L 1.84375 -19.578125 L 2.5 -21.609375 L 3.796875 -23.34375 L 5.5625 -24.546875 L 6.8125 -25.296875 L 8.203125 -25.734375 L 8.875 -25.84375 L 9.609375 -25.875 L 10.421875 -26.09375 L 13.25 -26.03125 L 14.6875 -25.734375 L 16.75 -25.03125 L 19.171875 -23.34375 L 19.984375 -22.234375 L 21.015625 -20.328125 L 21.09375 -19.625 L 21.234375 -18.921875 L 20.953125 -18.296875 L 20.25 -17.78125 L 19.578125 -17.859375 L 18.84375 -17.859375 L 17.859375 -17.921875 L 16.125 -17.78125 L 15.3125 -18.265625 L 14.765625 -19 L 14.140625 -19.515625 L 13.46875 -19.953125 L 12.8125 -20.140625 L 11.625 -20.28125 L 10.453125 -20.25 L 9.796875 -20.09375 L 9.203125 -19.765625 L 8.65625 -19.359375 L 8.203125 -18.890625 L 8.03125 -17.890625 L 8.171875 -16.78125 L 8.71875 -16.265625 L 10.09375 -15.609375 L 12.03125 -15.203125 L 13.109375 -15.203125 L 13.875 -15.0625 L 14.609375 -15.015625 L 15.34375 -14.90625 L 18.21875 -14.03125 L 18.890625 -13.625 L 19.46875 -13.328125 L 20.140625 -12.734375 L 21.09375 -11.625 L 21.5 -11.046875 L 22.046875 -8.90625 L 22.125 -7.734375 L 21.90625 -5.890625 L 21.6875 -5.265625 L 21.46875 -4.609375 L 21.0625 -3.796875 L 20.6875 -3.28125 L 19.625 -2.171875 L 17.125 -0.65625 L 16.421875 -0.328125 L 15.75 -0.25 L 15.015625 0.03125 L 14.28125 0.140625 L 13.546875 0.328125 L 12.8125 0.40625 Z M 9.90625 0.328125 "/></g></g><g style="fill:#000000;fill-opacity:1;"><g transform="translate(157.437373, 255.50329)"><path style="stroke:none" d="M 12.8125 0.109375 L 12.078125 0.03125 L 11.34375 0.109375 L 10.484375 0.078125 L 9.796875 -0.078125 L 8.28125 0.03125 L 7.625 0 L 6.8125 0.078125 L 4.15625 0.03125 L 3.0625 -0.4375 L 2.765625 -1.4375 L 2.6875 -2.25 L 2.796875 -4.78125 L 2.6875 -5.515625 L 2.765625 -6.21875 L 2.796875 -12.1875 L 2.6875 -12.84375 L 2.71875 -15.859375 L 2.796875 -16.5625 L 2.6875 -17.34375 L 2.765625 -20.953125 L 2.65625 -21.75 L 2.765625 -23.265625 L 2.6875 -24.671875 L 3.09375 -25.4375 L 3.859375 -25.734375 L 4.609375 -25.6875 L 5.34375 -25.765625 L 6 -25.6875 L 6.703125 -25.84375 L 7.4375 -25.734375 L 10.453125 -25.8125 L 11.1875 -25.734375 L 11.8125 -25.765625 L 12.546875 -25.6875 L 13.359375 -25.765625 L 16.34375 -25.8125 L 17 -25.65625 L 17.78125 -25.65625 L 18.515625 -25.359375 L 18.84375 -24.671875 L 18.921875 -22.453125 L 18.890625 -21.71875 L 18.921875 -20.984375 L 18.546875 -20.328125 L 17.78125 -19.875 L 17.078125 -19.84375 L 11.8125 -19.921875 L 11.125 -19.765625 L 10.421875 -19.8125 L 9.609375 -19.515625 L 9.28125 -18.8125 L 9.28125 -17.671875 L 9.578125 -16.53125 L 10.34375 -16.203125 L 12.484375 -16.265625 L 14.03125 -16.15625 L 14.796875 -16.234375 L 16.96875 -16.234375 L 17.8125 -15.75 L 18.1875 -14.71875 L 18.078125 -11.40625 L 17.8125 -10.671875 L 17.078125 -10.375 L 16.234375 -10.421875 L 15.5 -10.34375 L 13.984375 -10.375 L 12.59375 -10.3125 L 11.40625 -10.421875 L 10.3125 -10.375 L 9.640625 -9.96875 L 9.3125 -9.203125 L 9.3125 -6.890625 L 9.609375 -6.21875 L 10.375 -5.859375 L 11.1875 -5.921875 L 11.890625 -5.8125 L 12.703125 -5.859375 L 13.4375 -5.78125 L 14.65625 -5.921875 L 16.53125 -5.890625 L 17.234375 -5.78125 L 18.078125 -5.859375 L 18.84375 -5.515625 L 19.25 -4.78125 L 19.25 -1.0625 L 18.84375 -0.296875 L 18.078125 0.03125 Z M 12.8125 0.109375 "/></g></g><g style="fill:#000000;fill-opacity:1;"><g transform="translate(180.738023, 255.50329)"><path style="stroke:none" d="M 2.765625 -1.515625 L 2.765625 -6.953125 L 2.6875 -7.6875 L 2.71875 -10.671875 L 2.796875 -11.375 L 2.71875 -12.078125 L 2.71875 -12.8125 L 2.6875 -13.625 L 2.796875 -15.09375 L 2.71875 -15.828125 L 2.6875 -24.265625 L 3.125 -25.296875 L 3.796875 -25.65625 L 5.96875 -25.84375 L 6.78125 -25.8125 L 7.515625 -25.65625 L 8.25 -25.65625 L 8.90625 -25.84375 L 9.640625 -25.84375 L 10.375 -25.6875 L 12.59375 -25.6875 L 13.65625 -25.765625 L 14.828125 -25.734375 L 16.9375 -25.25 L 18.328125 -24.78125 L 19.625 -24.078125 L 21.71875 -21.859375 L 22.125 -21.28125 L 22.421875 -20.65625 L 23.078125 -18.546875 L 23.1875 -17.8125 L 23.265625 -15.5 L 22.78125 -13.359375 L 21.34375 -10.78125 L 20.828125 -10.34375 L 20.328125 -9.796875 L 19.984375 -8.984375 L 20.03125 -8.09375 L 20.46875 -7.546875 L 21.640625 -5.625 L 21.984375 -4.96875 L 23.234375 -3.09375 L 23.515625 -2.390625 L 23.96875 -1.875 L 24.375 -1.0625 L 24.15625 -0.25 L 23.453125 0.078125 L 22.234375 0.109375 L 21.53125 0.03125 L 18.625 0.078125 L 17.375 -0.25 L 16.5625 -0.921875 L 16.15625 -1.546875 L 15.859375 -2.28125 L 15.46875 -2.828125 L 14.765625 -4.15625 L 13.984375 -5.265625 L 13.6875 -5.921875 L 13.25 -6.65625 L 12.515625 -7.28125 L 10.375 -7.578125 L 9.6875 -7.171875 L 9.34375 -6.4375 L 9.28125 -4.09375 L 9.390625 -3.3125 L 9.3125 -2.65625 L 9.3125 -1.40625 L 8.984375 -0.328125 L 7.796875 0.03125 L 6.703125 0.03125 L 6.109375 0.109375 L 4.9375 0 L 4.203125 0.109375 L 3.125 -0.375 Z M 10.375 -13.46875 L 11.1875 -13.546875 L 12.953125 -13.46875 L 13.65625 -13.515625 L 14.71875 -13.765625 L 15.390625 -14.0625 L 15.796875 -14.390625 L 16.203125 -14.953125 L 16.53125 -15.6875 L 16.640625 -16.78125 L 16.484375 -17.75 L 16.265625 -18.328125 L 15.34375 -19.46875 L 14.65625 -19.65625 L 13.6875 -19.734375 L 12.65625 -19.953125 L 11.1875 -19.8125 L 10.453125 -19.84375 L 9.6875 -19.546875 L 9.34375 -18.84375 L 9.28125 -17.296875 L 9.34375 -16.671875 L 9.34375 -14.46875 L 9.640625 -13.875 Z M 10.375 -13.46875 "/></g></g><g style="fill:#000000;fill-opacity:1;"><g transform="translate(208.492518, 255.50329)"><path style="stroke:none" d="M 12.65625 0.328125 L 11.96875 0.21875 L 11.15625 -0.078125 L 10.421875 -0.703125 L 10.09375 -1.25 L 8.609375 -4.75 L 8.4375 -5.484375 L 8.03125 -6.140625 L 7.40625 -7.40625 L 7.140625 -8.171875 L 6.21875 -10.09375 L 6 -10.828125 L 2.6875 -18.265625 L 2.421875 -19.03125 L 2.03125 -19.578125 L 1.734375 -20.328125 L 1.546875 -21.015625 L 1.171875 -21.578125 L 0 -24.703125 L 0.296875 -25.4375 L 0.890625 -25.6875 L 2.28125 -25.6875 L 3.015625 -25.8125 L 5.109375 -25.734375 L 5.96875 -25.359375 L 6.59375 -24.734375 L 7.625 -21.9375 L 8.578125 -19.984375 L 10.421875 -15.203125 L 11.046875 -13.953125 L 11.1875 -13.25 L 12.109375 -11.265625 L 12.515625 -11.1875 L 12.890625 -11.859375 L 13.625 -13.921875 L 13.984375 -14.578125 L 14.140625 -15.234375 L 14.46875 -15.859375 L 14.6875 -16.640625 L 18.109375 -24.734375 L 18.734375 -25.359375 L 19.546875 -25.84375 L 20.953125 -25.6875 L 21.6875 -25.734375 L 22.375 -25.8125 L 23.046875 -25.6875 L 23.8125 -25.625 L 24.484375 -25.46875 L 24.671875 -24.703125 L 24.40625 -23.703125 L 23.703125 -22.421875 L 23.515625 -21.71875 L 22.890625 -20.390625 L 22.53125 -19.734375 L 19.328125 -12.140625 L 18.65625 -10.96875 L 18.40625 -10.15625 L 16.96875 -6.8125 L 16.5625 -6.140625 L 16.34375 -5.515625 L 15.984375 -4.75 L 15.75 -4.015625 L 15.0625 -2.828125 L 14.828125 -2.0625 L 14.359375 -1.03125 L 13.546875 0.03125 Z M 12.65625 0.328125 "/></g></g><g style="fill:#000000;fill-opacity:1;"><g transform="translate(235.510838, 255.50329)"><path style="stroke:none" d="M 12.328125 0.140625 L 11.59375 -0.03125 L 9.796875 -0.03125 L 8.6875 0.109375 L 7.21875 -0.03125 L 6.484375 0.03125 L 5.34375 0.078125 L 4.265625 -0.078125 L 3.578125 0 L 2.875 0 L 2.140625 -0.328125 L 1.765625 -1.328125 L 1.875 -4.71875 L 2.28125 -5.375 L 4.71875 -6.109375 L 5.109375 -7.21875 L 5 -18.515625 L 4.671875 -19.515625 L 3.96875 -19.953125 L 3.234375 -19.953125 L 2.421875 -20.359375 L 2.03125 -21.09375 L 2.09375 -21.796875 L 1.984375 -24.515625 L 2.359375 -25.40625 L 3.09375 -25.765625 L 3.9375 -25.765625 L 4.640625 -25.65625 L 7.65625 -25.65625 L 8.390625 -25.8125 L 9.0625 -25.734375 L 13.515625 -25.734375 L 14.171875 -25.328125 L 14.609375 -24.625 L 14.578125 -20.984375 L 14.203125 -20.390625 L 13.4375 -20.09375 L 12.703125 -19.984375 L 11.890625 -19.65625 L 11.625 -18.8125 L 11.484375 -15.09375 L 11.625 -12.4375 L 11.5625 -11.625 L 11.59375 -7.578125 L 11.484375 -6.890625 L 11.921875 -6.03125 L 12.8125 -5.75 L 13.578125 -5.75 L 14.390625 -5.34375 L 14.828125 -4.640625 L 14.828125 -1 L 14.46875 -0.296875 L 13.8125 0.078125 Z M 12.328125 0.140625 "/></g></g><g style="fill:#000000;fill-opacity:1;"><g transform="translate(254.431251, 255.50329)"><path style="stroke:none" d="M 12.8125 0.296875 L 12.109375 0.25 L 11.453125 0.109375 L 10.71875 -0.140625 L 10.046875 -0.296875 L 8.390625 -1 L 6.8125 -1.84375 L 5.15625 -3.28125 L 3.640625 -4.890625 L 2.0625 -8.09375 L 1.546875 -10.203125 L 1.328125 -12.890625 L 1.6875 -16.046875 L 2.0625 -17.5625 L 2.984375 -19.625 L 3.6875 -20.6875 L 4.671875 -21.9375 L 6.265625 -23.375 L 7.328125 -24.1875 L 10.046875 -25.46875 L 13.625 -26.171875 L 15.90625 -26.140625 L 16.640625 -26.03125 L 17.34375 -25.984375 L 20.875 -24.8125 L 23.375 -23.234375 L 24.40625 -22.15625 L 24.8125 -21.46875 L 25.328125 -20.828125 L 25.65625 -20.25 L 26.0625 -19.65625 L 26.28125 -18.890625 L 26.546875 -18.21875 L 26.765625 -17.40625 L 26.5 -16.671875 L 25.875 -16.375 L 24.78125 -16.265625 L 23.75 -16.375 L 23.015625 -16.34375 L 22.234375 -16.375 L 21.578125 -16.3125 L 20.71875 -16.71875 L 20.03125 -17.40625 L 19.625 -17.96875 L 18.546875 -19.03125 L 18.03125 -19.4375 L 17.375 -19.6875 L 16.234375 -20.03125 L 14.65625 -20.09375 L 12.1875 -19.765625 L 11.1875 -19.21875 L 10.3125 -18.515625 L 9.421875 -17.484375 L 9.0625 -16.78125 L 8.5 -15.46875 L 8.25 -13.984375 L 8.25 -11.75 L 8.359375 -10.9375 L 8.546875 -10.265625 L 8.796875 -9.75 L 9.0625 -9.015625 L 9.859375 -7.734375 L 10.9375 -6.78125 L 12.21875 -6.109375 L 13.546875 -5.625 L 14.609375 -5.515625 L 16.5625 -5.625 L 17.859375 -6.328125 L 18.40625 -6.546875 L 19 -7.0625 L 19.84375 -8.03125 L 20.203125 -8.71875 L 20.796875 -9.3125 L 21.640625 -9.75 L 22.375 -9.71875 L 23.125 -9.75 L 23.859375 -9.640625 L 25.921875 -9.796875 L 26.65625 -9.3125 L 26.875 -8.65625 L 25.921875 -5.859375 L 25.140625 -4.53125 L 24.296875 -3.421875 L 23.265625 -2.390625 L 21.46875 -1.109375 L 20.828125 -0.8125 L 20.0625 -0.546875 L 19.40625 -0.1875 L 17.234375 0.25 L 14.65625 0.4375 Z M 12.8125 0.296875 "/></g></g><g style="fill:#000000;fill-opacity:1;"><g transform="translate(284.725546, 255.50329)"><path style="stroke:none" d="M 12.8125 0.109375 L 12.078125 0.03125 L 11.34375 0.109375 L 10.484375 0.078125 L 9.796875 -0.078125 L 8.28125 0.03125 L 7.625 0 L 6.8125 0.078125 L 4.15625 0.03125 L 3.0625 -0.4375 L 2.765625 -1.4375 L 2.6875 -2.25 L 2.796875 -4.78125 L 2.6875 -5.515625 L 2.765625 -6.21875 L 2.796875 -12.1875 L 2.6875 -12.84375 L 2.71875 -15.859375 L 2.796875 -16.5625 L 2.6875 -17.34375 L 2.765625 -20.953125 L 2.65625 -21.75 L 2.765625 -23.265625 L 2.6875 -24.671875 L 3.09375 -25.4375 L 3.859375 -25.734375 L 4.609375 -25.6875 L 5.34375 -25.765625 L 6 -25.6875 L 6.703125 -25.84375 L 7.4375 -25.734375 L 10.453125 -25.8125 L 11.1875 -25.734375 L 11.8125 -25.765625 L 12.546875 -25.6875 L 13.359375 -25.765625 L 16.34375 -25.8125 L 17 -25.65625 L 17.78125 -25.65625 L 18.515625 -25.359375 L 18.84375 -24.671875 L 18.921875 -22.453125 L 18.890625 -21.71875 L 18.921875 -20.984375 L 18.546875 -20.328125 L 17.78125 -19.875 L 17.078125 -19.84375 L 11.8125 -19.921875 L 11.125 -19.765625 L 10.421875 -19.8125 L 9.609375 -19.515625 L 9.28125 -18.8125 L 9.28125 -17.671875 L 9.578125 -16.53125 L 10.34375 -16.203125 L 12.484375 -16.265625 L 14.03125 -16.15625 L 14.796875 -16.234375 L 16.96875 -16.234375 L 17.8125 -15.75 L 18.1875 -14.71875 L 18.078125 -11.40625 L 17.8125 -10.671875 L 17.078125 -10.375 L 16.234375 -10.421875 L 15.5 -10.34375 L 13.984375 -10.375 L 12.59375 -10.3125 L 11.40625 -10.421875 L 10.3125 -10.375 L 9.640625 -9.96875 L 9.3125 -9.203125 L 9.3125 -6.890625 L 9.609375 -6.21875 L 10.375 -5.859375 L 11.1875 -5.921875 L 11.890625 -5.8125 L 12.703125 -5.859375 L 13.4375 -5.78125 L 14.65625 -5.921875 L 16.53125 -5.890625 L 17.234375 -5.78125 L 18.078125 -5.859375 L 18.84375 -5.515625 L 19.25 -4.78125 L 19.25 -1.0625 L 18.84375 -0.296875 L 18.078125 0.03125 Z M 12.8125 0.109375 "/></g></g><g style="fill:#000000;fill-opacity:1;"><g transform="translate(158.928041, 275.640774)"><path style="stroke:none" d="M 4.828125 0.15625 L 4.546875 0.125 L 4.09375 0.03125 L 3.796875 0 L 3.421875 -0.125 L 2.421875 -0.640625 L 2 -0.984375 L 1.859375 -1.140625 L 1.65625 -1.328125 L 1.5 -1.53125 L 1.34375 -1.6875 L 0.75 -2.859375 L 0.625 -3.34375 L 0.609375 -3.59375 L 0.546875 -3.828125 L 0.5 -4.09375 L 0.546875 -5.140625 L 0.765625 -6.140625 L 0.953125 -6.625 L 1.359375 -7.3125 L 1.984375 -8.046875 L 2.421875 -8.359375 L 2.65625 -8.484375 L 2.84375 -8.625 L 3.8125 -8.984375 L 5.1875 -9.171875 L 5.53125 -9.171875 L 6.28125 -9.03125 L 7.265625 -8.734375 L 7.46875 -8.578125 L 7.84375 -8.421875 L 8.140625 -8.21875 L 8.515625 -7.890625 L 8.875 -7.484375 L 9.171875 -7.109375 L 9.40625 -6.625 L 9.734375 -5.65625 L 9.828125 -5.125 L 9.859375 -4.484375 L 9.8125 -4.109375 L 9.796875 -3.84375 L 9.734375 -3.578125 L 9.71875 -3.34375 L 9.609375 -2.859375 L 9.421875 -2.375 L 8.859375 -1.515625 L 8.671875 -1.328125 L 8.5 -1.09375 L 8.140625 -0.78125 L 7.90625 -0.671875 L 7.703125 -0.515625 L 7.28125 -0.28125 L 6.3125 0.03125 L 5.546875 0.140625 Z M 5.546875 -2.125 L 5.796875 -2.171875 L 6 -2.265625 L 6.21875 -2.328125 L 6.84375 -2.765625 L 7.03125 -2.96875 L 7.109375 -3.15625 L 7.25 -3.390625 L 7.328125 -3.625 L 7.4375 -4.09375 L 7.46875 -4.890625 L 7.421875 -5.125 L 7.3125 -5.359375 L 7.15625 -5.859375 L 6.65625 -6.375 L 6.25 -6.671875 L 6.015625 -6.765625 L 5.78125 -6.8125 L 5.171875 -6.890625 L 4.8125 -6.875 L 4.3125 -6.734375 L 4.140625 -6.671875 L 3.5 -6.234375 L 3.1875 -5.828125 L 3.109375 -5.59375 L 3 -5.359375 L 2.96875 -5.125 L 2.90625 -4.890625 L 2.90625 -4.09375 L 3 -3.625 L 3.125 -3.390625 L 3.1875 -3.1875 L 3.359375 -2.9375 L 3.53125 -2.765625 L 3.875 -2.46875 L 4.09375 -2.359375 L 4.546875 -2.171875 L 4.828125 -2.125 Z M 5.546875 -2.125 "/></g></g><g style="fill:#000000;fill-opacity:1;"><g transform="translate(170.700314, 275.640774)"><path style="stroke:none" d="M 7.609375 -0.203125 L 7.4375 -0.375 L 7.28125 -0.5625 L 7.078125 -0.734375 L 6.90625 -0.9375 L 5.65625 -2.1875 L 5.453125 -2.359375 L 3.609375 -4.15625 L 3.4375 -4.203125 L 3.3125 -4.046875 L 3.359375 -3.78125 L 3.328125 -0.625 L 3.359375 -0.359375 L 3.25 -0.109375 L 2.984375 0.03125 L 2.6875 0 L 2.421875 0.03125 L 1.78125 0 L 1.34375 0.03125 L 1.09375 -0.109375 L 0.984375 -0.40625 L 0.984375 -0.640625 L 0.9375 -0.90625 L 0.984375 -1.390625 L 0.953125 -1.65625 L 0.96875 -2.171875 L 0.921875 -2.453125 L 0.921875 -2.6875 L 0.953125 -2.984375 L 0.953125 -3.21875 L 0.984375 -3.453125 L 0.921875 -5.296875 L 0.96875 -5.5625 L 0.953125 -5.84375 L 0.984375 -6.078125 L 0.9375 -6.59375 L 0.96875 -6.859375 L 0.9375 -8.65625 L 1.109375 -8.90625 L 1.421875 -9.0625 L 1.765625 -8.953125 L 2.28125 -8.609375 L 2.984375 -7.90625 L 3.140625 -7.6875 L 3.359375 -7.53125 L 3.5 -7.328125 L 3.734375 -7.171875 L 3.875 -6.96875 L 4.28125 -6.640625 L 4.546875 -6.359375 L 4.6875 -6.171875 L 4.890625 -6.015625 L 5.34375 -5.5625 L 5.546875 -5.40625 L 6.109375 -4.828125 L 6.296875 -4.765625 L 6.359375 -4.96875 L 6.34375 -5.484375 L 6.390625 -5.765625 L 6.390625 -6 L 6.34375 -6.28125 L 6.359375 -8.625 L 6.484375 -8.890625 L 6.796875 -9.015625 L 7.046875 -9.015625 L 7.28125 -9.03125 L 7.546875 -9 L 7.84375 -9.015625 L 8.078125 -9.015625 L 8.34375 -9 L 8.625 -8.875 L 8.78125 -8.640625 L 8.75 -7.96875 L 8.78125 -7.578125 L 8.734375 -7.328125 L 8.734375 -6.8125 L 8.75 -6.5625 L 8.71875 -6.046875 L 8.765625 -4.5 L 8.734375 -4.21875 L 8.796875 -3.859375 L 8.734375 -0.34375 L 8.609375 -0.078125 L 8.3125 0.0625 L 7.984375 -0.03125 Z M 7.609375 -0.203125 "/></g></g><g style="fill:#000000;fill-opacity:1;"><g transform="translate(181.8544, 275.640774)"><path style="stroke:none" d="M 0.96875 -0.375 L 0.9375 -0.640625 L 1 -0.890625 L 0.96875 -1.140625 L 0.984375 -2.71875 L 0.953125 -2.953125 L 0.9375 -3.46875 L 0.984375 -3.71875 L 0.9375 -4.234375 L 0.984375 -4.484375 L 0.9375 -5.046875 L 0.984375 -5.28125 L 0.953125 -5.546875 L 1 -5.78125 L 0.953125 -6.046875 L 0.984375 -6.296875 L 0.96875 -6.546875 L 1 -6.828125 L 0.984375 -7.078125 L 0.9375 -7.328125 L 0.984375 -7.609375 L 1 -7.84375 L 0.921875 -8.515625 L 1.09375 -8.875 L 1.46875 -9.015625 L 2.8125 -9.03125 L 3.140625 -8.875 L 3.28125 -8.5 L 3.296875 -7.859375 L 3.28125 -7.578125 L 3.3125 -5.5625 L 3.28125 -5.296875 L 3.3125 -5.015625 L 3.28125 -4.65625 L 3.28125 -4.015625 L 3.265625 -3.734375 L 3.28125 -3.484375 L 3.28125 -3.203125 L 3.3125 -2.953125 L 3.296875 -2.46875 L 3.375 -2.1875 L 3.640625 -2.078125 L 5.921875 -2.046875 L 6.203125 -2.09375 L 6.40625 -1.953125 L 6.578125 -1.671875 L 6.53125 -1.4375 L 6.578125 -1.140625 L 6.546875 -0.921875 L 6.53125 -0.65625 L 6.5625 -0.375 L 6.421875 -0.140625 L 6.0625 -0.015625 L 1.5 0.015625 L 1.078125 -0.140625 Z M 0.96875 -0.375 "/></g></g><g style="fill:#000000;fill-opacity:1;"><g transform="translate(190.226645, 275.640774)"><path style="stroke:none" d="M 0.625 -0.375 L 0.625 -1.359375 L 0.640625 -1.609375 L 0.796875 -1.859375 L 1.65625 -2.125 L 1.78125 -2.40625 L 1.796875 -2.90625 L 1.75 -3.46875 L 1.8125 -3.71875 L 1.765625 -4.234375 L 1.796875 -4.484375 L 1.796875 -5.015625 L 1.765625 -5.3125 L 1.75 -5.53125 L 1.796875 -6.625 L 1.625 -6.859375 L 0.84375 -7.125 L 0.703125 -7.375 L 0.703125 -7.625 L 0.6875 -7.875 L 0.6875 -8.15625 L 0.703125 -8.375 L 0.703125 -8.625 L 0.84375 -8.890625 L 1.140625 -9.015625 L 1.640625 -9 L 1.875 -9.015625 L 2.671875 -9 L 2.953125 -9.015625 L 4.59375 -9.015625 L 5 -8.890625 L 5.109375 -8.640625 L 5.125 -8.375 L 5.109375 -8.140625 L 5.109375 -7.390625 L 4.96875 -7.140625 L 4.71875 -7 L 4.4375 -6.984375 L 4.1875 -6.84375 L 4.046875 -6.609375 L 4.046875 -6.078125 L 4.078125 -5.796875 L 4.046875 -5.546875 L 4.078125 -5.296875 L 4.046875 -4.890625 L 4.078125 -4.515625 L 4.015625 -3.96875 L 4.078125 -3.453125 L 4.046875 -2.390625 L 4.1875 -2.140625 L 5.046875 -1.875 L 5.234375 -1.65625 L 5.1875 -0.859375 L 5.21875 -0.625 L 5.21875 -0.34375 L 5.078125 -0.109375 L 4.828125 0.015625 L 1 -0.015625 L 0.75 -0.109375 Z M 0.625 -0.375 "/></g></g><g style="fill:#000000;fill-opacity:1;"><g transform="translate(197.517058, 275.640774)"><path style="stroke:none" d="M 7.609375 -0.203125 L 7.4375 -0.375 L 7.28125 -0.5625 L 7.078125 -0.734375 L 6.90625 -0.9375 L 5.65625 -2.1875 L 5.453125 -2.359375 L 3.609375 -4.15625 L 3.4375 -4.203125 L 3.3125 -4.046875 L 3.359375 -3.78125 L 3.328125 -0.625 L 3.359375 -0.359375 L 3.25 -0.109375 L 2.984375 0.03125 L 2.6875 0 L 2.421875 0.03125 L 1.78125 0 L 1.34375 0.03125 L 1.09375 -0.109375 L 0.984375 -0.40625 L 0.984375 -0.640625 L 0.9375 -0.90625 L 0.984375 -1.390625 L 0.953125 -1.65625 L 0.96875 -2.171875 L 0.921875 -2.453125 L 0.921875 -2.6875 L 0.953125 -2.984375 L 0.953125 -3.21875 L 0.984375 -3.453125 L 0.921875 -5.296875 L 0.96875 -5.5625 L 0.953125 -5.84375 L 0.984375 -6.078125 L 0.9375 -6.59375 L 0.96875 -6.859375 L 0.9375 -8.65625 L 1.109375 -8.90625 L 1.421875 -9.0625 L 1.765625 -8.953125 L 2.28125 -8.609375 L 2.984375 -7.90625 L 3.140625 -7.6875 L 3.359375 -7.53125 L 3.5 -7.328125 L 3.734375 -7.171875 L 3.875 -6.96875 L 4.28125 -6.640625 L 4.546875 -6.359375 L 4.6875 -6.171875 L 4.890625 -6.015625 L 5.34375 -5.5625 L 5.546875 -5.40625 L 6.109375 -4.828125 L 6.296875 -4.765625 L 6.359375 -4.96875 L 6.34375 -5.484375 L 6.390625 -5.765625 L 6.390625 -6 L 6.34375 -6.28125 L 6.359375 -8.625 L 6.484375 -8.890625 L 6.796875 -9.015625 L 7.046875 -9.015625 L 7.28125 -9.03125 L 7.546875 -9 L 7.84375 -9.015625 L 8.078125 -9.015625 L 8.34375 -9 L 8.625 -8.875 L 8.78125 -8.640625 L 8.75 -7.96875 L 8.78125 -7.578125 L 8.734375 -7.328125 L 8.734375 -6.8125 L 8.75 -6.5625 L 8.71875 -6.046875 L 8.765625 -4.5 L 8.734375 -4.21875 L 8.796875 -3.859375 L 8.734375 -0.34375 L 8.609375 -0.078125 L 8.3125 0.0625 L 7.984375 -0.03125 Z M 7.609375 -0.203125 "/></g></g><g style="fill:#000000;fill-opacity:1;"><g transform="translate(208.671144, 275.640774)"><path style="stroke:none" d="M 0.921875 -0.375 L 0.984375 -0.625 L 1 -0.890625 L 0.96875 -1.390625 L 0.96875 -1.65625 L 0.9375 -1.953125 L 0.984375 -2.171875 L 0.96875 -2.421875 L 1 -2.703125 L 0.953125 -2.984375 L 0.984375 -3.5 L 0.9375 -4 L 0.984375 -4.265625 L 0.984375 -6.578125 L 0.953125 -6.8125 L 0.984375 -7.078125 L 0.921875 -7.734375 L 0.984375 -8.109375 L 0.953125 -8.625 L 1.078125 -8.90625 L 1.453125 -9 L 3.140625 -9.03125 L 3.375 -9.015625 L 3.875 -9.015625 L 4.140625 -9 L 4.703125 -9.015625 L 4.96875 -8.984375 L 5.1875 -9.015625 L 6.21875 -9 L 6.5 -8.875 L 6.625 -8.625 L 6.59375 -8.375 L 6.578125 -8.09375 L 6.609375 -7.84375 L 6.640625 -7.328125 L 6.5 -7.09375 L 6.21875 -6.953125 L 3.75 -6.9375 L 3.34375 -6.8125 L 3.21875 -6.4375 L 3.25 -6.046875 L 3.40625 -5.8125 L 3.625 -5.671875 L 4.640625 -5.6875 L 4.9375 -5.65625 L 5.203125 -5.65625 L 5.46875 -5.6875 L 5.984375 -5.671875 L 6.203125 -5.53125 L 6.3125 -5.28125 L 6.34375 -5.03125 L 6.3125 -4.015625 L 6.1875 -3.765625 L 5.921875 -3.625 L 5.703125 -3.609375 L 5.421875 -3.640625 L 5.078125 -3.609375 L 4.390625 -3.640625 L 4.140625 -3.625 L 3.640625 -3.625 L 3.40625 -3.484375 L 3.28125 -3.203125 L 3.28125 -2.578125 L 3.390625 -2.171875 L 3.65625 -2.03125 L 3.9375 -2.046875 L 4.234375 -2.03125 L 4.46875 -2.0625 L 6.171875 -2.03125 L 6.5625 -1.90625 L 6.734375 -1.65625 L 6.703125 -1.40625 L 6.71875 -0.609375 L 6.6875 -0.359375 L 6.578125 -0.109375 L 6.296875 0.015625 L 6.0625 0.03125 L 5.265625 -0.015625 L 4.484375 0.03125 L 4.25 -0.015625 L 1.34375 0.015625 L 1.09375 -0.125 Z M 0.921875 -0.375 "/></g></g></g></svg>